M48
; DRILL file {KiCad (5.1.10-1-10_14)} date Wednesday, November 10, 2021 at 10:24:30 PM
; FORMAT={-:-/ absolute / metric / decimal}
; #@! TF.CreationDate,2021-11-10T22:24:30+09:00
; #@! TF.GenerationSoftware,Kicad,Pcbnew,(5.1.10-1-10_14)
; #@! TF.FileFunction,NonPlated,1,2,NPTH
FMAT,2
METRIC
T1C2.200
T2C3.000
T3C4.000
%
G90
G05
T1
X30.063Y-105.966
X30.063Y-198.537
X33.02Y-114.3
X33.02Y-133.35
X33.02Y-152.4
X33.02Y-171.45
X33.02Y-190.5
X43.18Y-114.3
X43.18Y-133.35
X43.18Y-152.4
X43.18Y-171.45
X43.18Y-190.5
X52.07Y-114.3
X52.07Y-133.35
X52.07Y-152.4
X52.07Y-171.45
X52.07Y-190.5
X62.23Y-114.3
X62.23Y-133.35
X62.23Y-152.4
X62.23Y-171.45
X62.23Y-190.5
X71.12Y-114.3
X71.12Y-133.35
X71.12Y-152.4
X71.12Y-171.45
X71.12Y-190.5
X81.28Y-114.3
X81.28Y-133.35
X81.28Y-152.4
X81.28Y-171.45
X81.28Y-190.5
X90.17Y-114.3
X90.17Y-133.35
X90.17Y-152.4
X90.17Y-171.45
X90.17Y-190.5
X100.33Y-114.3
X100.33Y-133.35
X100.33Y-152.4
X100.33Y-171.45
X100.33Y-190.5
X113.109Y-146.744
X122.634Y-198.537
T2
X34.29Y-111.76
X34.29Y-130.81
X34.29Y-149.86
X34.29Y-168.91
X34.29Y-187.96
X40.64Y-109.22
X40.64Y-128.27
X40.64Y-147.32
X40.64Y-166.37
X40.64Y-185.42
X53.34Y-111.76
X53.34Y-130.81
X53.34Y-149.86
X53.34Y-168.91
X53.34Y-187.96
X59.69Y-109.22
X59.69Y-128.27
X59.69Y-147.32
X59.69Y-166.37
X59.69Y-185.42
X72.39Y-111.76
X72.39Y-130.81
X72.39Y-149.86
X72.39Y-168.91
X72.39Y-187.96
X78.74Y-109.22
X78.74Y-128.27
X78.74Y-147.32
X78.74Y-166.37
X78.74Y-185.42
X91.44Y-111.76
X91.44Y-130.81
X91.44Y-149.86
X91.44Y-168.91
X91.44Y-187.96
X97.79Y-109.22
X97.79Y-128.27
X97.79Y-147.32
X97.79Y-166.37
X97.79Y-185.42
T3
X38.1Y-114.3
X38.1Y-133.35
X38.1Y-152.4
X38.1Y-171.45
X38.1Y-190.5
X57.15Y-114.3
X57.15Y-133.35
X57.15Y-152.4
X57.15Y-171.45
X57.15Y-190.5
X76.2Y-114.3
X76.2Y-133.35
X76.2Y-152.4
X76.2Y-171.45
X76.2Y-190.5
X95.25Y-114.3
X95.25Y-133.35
X95.25Y-152.4
X95.25Y-171.45
X95.25Y-190.5
T0
M30
