%TF.GenerationSoftware,KiCad,Pcbnew,(5.1.10-1-10_14)*%
%TF.CreationDate,2021-11-10T22:24:01+09:00*%
%TF.ProjectId,macropad,6d616372-6f70-4616-942e-6b696361645f,rev?*%
%TF.SameCoordinates,Original*%
%TF.FileFunction,Legend,Top*%
%TF.FilePolarity,Positive*%
%FSLAX46Y46*%
G04 Gerber Fmt 4.6, Leading zero omitted, Abs format (unit mm)*
G04 Created by KiCad (PCBNEW (5.1.10-1-10_14)) date 2021-11-10 22:24:01*
%MOMM*%
%LPD*%
G01*
G04 APERTURE LIST*
%ADD10C,0.150000*%
%ADD11C,0.120000*%
G04 APERTURE END LIST*
D10*
%TO.C,SW21*%
X110328500Y-167482250D02*
X109534750Y-167482250D01*
X109534750Y-167482250D02*
X109534750Y-166688500D01*
X110328500Y-156369750D02*
X109534750Y-156369750D01*
X109534750Y-156369750D02*
X109534750Y-157163500D01*
X119853500Y-167482250D02*
X120647250Y-167482250D01*
X120647250Y-167482250D02*
X120647250Y-166688500D01*
X120647250Y-157163500D02*
X120647250Y-156369750D01*
X120647250Y-156369750D02*
X119853500Y-156369750D01*
%TO.C,SW22*%
X120647250Y-180181750D02*
X119853500Y-180181750D01*
X120647250Y-180975500D02*
X120647250Y-180181750D01*
X120647250Y-191294250D02*
X120647250Y-190500500D01*
X119853500Y-191294250D02*
X120647250Y-191294250D01*
X109534750Y-180181750D02*
X109534750Y-180975500D01*
X110328500Y-180181750D02*
X109534750Y-180181750D01*
X109534750Y-191294250D02*
X109534750Y-190500500D01*
X110328500Y-191294250D02*
X109534750Y-191294250D01*
%TO.C,SW23*%
X122224896Y-142650000D02*
X122474896Y-142650000D01*
X122224896Y-148350000D02*
X122224896Y-142650000D01*
X122224896Y-148350000D02*
X122474896Y-148350000D01*
X125424896Y-148350000D02*
X125174896Y-148350000D01*
X125424896Y-142650000D02*
X125174896Y-142650000D01*
X125424896Y-148350000D02*
X125424896Y-142650000D01*
%TO.C,U1*%
X123591000Y-136750000D02*
X122581000Y-136750000D01*
X105791000Y-136750000D02*
X106791000Y-136750000D01*
X123591000Y-135750000D02*
X123591000Y-136750000D01*
X105791000Y-135700000D02*
X105791000Y-136750000D01*
X123591000Y-103700000D02*
X122641000Y-103700000D01*
X105791000Y-103700000D02*
X106791000Y-103700000D01*
X123591000Y-103700000D02*
X123591000Y-104700000D01*
X105791000Y-103700000D02*
X105791000Y-104700000D01*
X110941000Y-100800000D02*
X110941000Y-102100000D01*
X110941000Y-102100000D02*
X118441000Y-102100000D01*
X118441000Y-102100000D02*
X118441000Y-100800000D01*
X118441000Y-100800000D02*
X110941000Y-100800000D01*
X114191000Y-101150000D02*
X115191000Y-101150000D01*
X115191000Y-101150000D02*
X114691000Y-101800000D01*
X114691000Y-101800000D02*
X114191000Y-101150000D01*
X114341000Y-101300000D02*
X115041000Y-101300000D01*
X114441000Y-101450000D02*
X114941000Y-101450000D01*
X114541000Y-101600000D02*
X114841000Y-101600000D01*
%TO.C,L1*%
X35004761Y-121864380D02*
X34528571Y-121864380D01*
X34528571Y-120864380D01*
X35338095Y-121864380D02*
X35338095Y-121197714D01*
X35338095Y-120864380D02*
X35290476Y-120912000D01*
X35338095Y-120959619D01*
X35385714Y-120912000D01*
X35338095Y-120864380D01*
X35338095Y-120959619D01*
X36242857Y-121197714D02*
X36242857Y-122007238D01*
X36195238Y-122102476D01*
X36147619Y-122150095D01*
X36052380Y-122197714D01*
X35909523Y-122197714D01*
X35814285Y-122150095D01*
X36242857Y-121816761D02*
X36147619Y-121864380D01*
X35957142Y-121864380D01*
X35861904Y-121816761D01*
X35814285Y-121769142D01*
X35766666Y-121673904D01*
X35766666Y-121388190D01*
X35814285Y-121292952D01*
X35861904Y-121245333D01*
X35957142Y-121197714D01*
X36147619Y-121197714D01*
X36242857Y-121245333D01*
X36719047Y-121864380D02*
X36719047Y-120864380D01*
X37147619Y-121864380D02*
X37147619Y-121340571D01*
X37100000Y-121245333D01*
X37004761Y-121197714D01*
X36861904Y-121197714D01*
X36766666Y-121245333D01*
X36719047Y-121292952D01*
X37480952Y-121197714D02*
X37861904Y-121197714D01*
X37623809Y-120864380D02*
X37623809Y-121721523D01*
X37671428Y-121816761D01*
X37766666Y-121864380D01*
X37861904Y-121864380D01*
X38909523Y-121816761D02*
X39052380Y-121864380D01*
X39290476Y-121864380D01*
X39385714Y-121816761D01*
X39433333Y-121769142D01*
X39480952Y-121673904D01*
X39480952Y-121578666D01*
X39433333Y-121483428D01*
X39385714Y-121435809D01*
X39290476Y-121388190D01*
X39100000Y-121340571D01*
X39004761Y-121292952D01*
X38957142Y-121245333D01*
X38909523Y-121150095D01*
X38909523Y-121054857D01*
X38957142Y-120959619D01*
X39004761Y-120912000D01*
X39100000Y-120864380D01*
X39338095Y-120864380D01*
X39480952Y-120912000D01*
X39909523Y-121864380D02*
X39909523Y-121197714D01*
X39909523Y-120864380D02*
X39861904Y-120912000D01*
X39909523Y-120959619D01*
X39957142Y-120912000D01*
X39909523Y-120864380D01*
X39909523Y-120959619D01*
X40814285Y-121864380D02*
X40814285Y-120864380D01*
X40814285Y-121816761D02*
X40719047Y-121864380D01*
X40528571Y-121864380D01*
X40433333Y-121816761D01*
X40385714Y-121769142D01*
X40338095Y-121673904D01*
X40338095Y-121388190D01*
X40385714Y-121292952D01*
X40433333Y-121245333D01*
X40528571Y-121197714D01*
X40719047Y-121197714D01*
X40814285Y-121245333D01*
X41671428Y-121816761D02*
X41576190Y-121864380D01*
X41385714Y-121864380D01*
X41290476Y-121816761D01*
X41242857Y-121721523D01*
X41242857Y-121340571D01*
X41290476Y-121245333D01*
X41385714Y-121197714D01*
X41576190Y-121197714D01*
X41671428Y-121245333D01*
X41719047Y-121340571D01*
X41719047Y-121435809D01*
X41242857Y-121531047D01*
%TO.C,L2*%
X54054761Y-121864380D02*
X53578571Y-121864380D01*
X53578571Y-120864380D01*
X54388095Y-121864380D02*
X54388095Y-121197714D01*
X54388095Y-120864380D02*
X54340476Y-120912000D01*
X54388095Y-120959619D01*
X54435714Y-120912000D01*
X54388095Y-120864380D01*
X54388095Y-120959619D01*
X55292857Y-121197714D02*
X55292857Y-122007238D01*
X55245238Y-122102476D01*
X55197619Y-122150095D01*
X55102380Y-122197714D01*
X54959523Y-122197714D01*
X54864285Y-122150095D01*
X55292857Y-121816761D02*
X55197619Y-121864380D01*
X55007142Y-121864380D01*
X54911904Y-121816761D01*
X54864285Y-121769142D01*
X54816666Y-121673904D01*
X54816666Y-121388190D01*
X54864285Y-121292952D01*
X54911904Y-121245333D01*
X55007142Y-121197714D01*
X55197619Y-121197714D01*
X55292857Y-121245333D01*
X55769047Y-121864380D02*
X55769047Y-120864380D01*
X56197619Y-121864380D02*
X56197619Y-121340571D01*
X56150000Y-121245333D01*
X56054761Y-121197714D01*
X55911904Y-121197714D01*
X55816666Y-121245333D01*
X55769047Y-121292952D01*
X56530952Y-121197714D02*
X56911904Y-121197714D01*
X56673809Y-120864380D02*
X56673809Y-121721523D01*
X56721428Y-121816761D01*
X56816666Y-121864380D01*
X56911904Y-121864380D01*
X57959523Y-121816761D02*
X58102380Y-121864380D01*
X58340476Y-121864380D01*
X58435714Y-121816761D01*
X58483333Y-121769142D01*
X58530952Y-121673904D01*
X58530952Y-121578666D01*
X58483333Y-121483428D01*
X58435714Y-121435809D01*
X58340476Y-121388190D01*
X58150000Y-121340571D01*
X58054761Y-121292952D01*
X58007142Y-121245333D01*
X57959523Y-121150095D01*
X57959523Y-121054857D01*
X58007142Y-120959619D01*
X58054761Y-120912000D01*
X58150000Y-120864380D01*
X58388095Y-120864380D01*
X58530952Y-120912000D01*
X58959523Y-121864380D02*
X58959523Y-121197714D01*
X58959523Y-120864380D02*
X58911904Y-120912000D01*
X58959523Y-120959619D01*
X59007142Y-120912000D01*
X58959523Y-120864380D01*
X58959523Y-120959619D01*
X59864285Y-121864380D02*
X59864285Y-120864380D01*
X59864285Y-121816761D02*
X59769047Y-121864380D01*
X59578571Y-121864380D01*
X59483333Y-121816761D01*
X59435714Y-121769142D01*
X59388095Y-121673904D01*
X59388095Y-121388190D01*
X59435714Y-121292952D01*
X59483333Y-121245333D01*
X59578571Y-121197714D01*
X59769047Y-121197714D01*
X59864285Y-121245333D01*
X60721428Y-121816761D02*
X60626190Y-121864380D01*
X60435714Y-121864380D01*
X60340476Y-121816761D01*
X60292857Y-121721523D01*
X60292857Y-121340571D01*
X60340476Y-121245333D01*
X60435714Y-121197714D01*
X60626190Y-121197714D01*
X60721428Y-121245333D01*
X60769047Y-121340571D01*
X60769047Y-121435809D01*
X60292857Y-121531047D01*
%TO.C,L3*%
X73104761Y-121864380D02*
X72628571Y-121864380D01*
X72628571Y-120864380D01*
X73438095Y-121864380D02*
X73438095Y-121197714D01*
X73438095Y-120864380D02*
X73390476Y-120912000D01*
X73438095Y-120959619D01*
X73485714Y-120912000D01*
X73438095Y-120864380D01*
X73438095Y-120959619D01*
X74342857Y-121197714D02*
X74342857Y-122007238D01*
X74295238Y-122102476D01*
X74247619Y-122150095D01*
X74152380Y-122197714D01*
X74009523Y-122197714D01*
X73914285Y-122150095D01*
X74342857Y-121816761D02*
X74247619Y-121864380D01*
X74057142Y-121864380D01*
X73961904Y-121816761D01*
X73914285Y-121769142D01*
X73866666Y-121673904D01*
X73866666Y-121388190D01*
X73914285Y-121292952D01*
X73961904Y-121245333D01*
X74057142Y-121197714D01*
X74247619Y-121197714D01*
X74342857Y-121245333D01*
X74819047Y-121864380D02*
X74819047Y-120864380D01*
X75247619Y-121864380D02*
X75247619Y-121340571D01*
X75200000Y-121245333D01*
X75104761Y-121197714D01*
X74961904Y-121197714D01*
X74866666Y-121245333D01*
X74819047Y-121292952D01*
X75580952Y-121197714D02*
X75961904Y-121197714D01*
X75723809Y-120864380D02*
X75723809Y-121721523D01*
X75771428Y-121816761D01*
X75866666Y-121864380D01*
X75961904Y-121864380D01*
X77009523Y-121816761D02*
X77152380Y-121864380D01*
X77390476Y-121864380D01*
X77485714Y-121816761D01*
X77533333Y-121769142D01*
X77580952Y-121673904D01*
X77580952Y-121578666D01*
X77533333Y-121483428D01*
X77485714Y-121435809D01*
X77390476Y-121388190D01*
X77200000Y-121340571D01*
X77104761Y-121292952D01*
X77057142Y-121245333D01*
X77009523Y-121150095D01*
X77009523Y-121054857D01*
X77057142Y-120959619D01*
X77104761Y-120912000D01*
X77200000Y-120864380D01*
X77438095Y-120864380D01*
X77580952Y-120912000D01*
X78009523Y-121864380D02*
X78009523Y-121197714D01*
X78009523Y-120864380D02*
X77961904Y-120912000D01*
X78009523Y-120959619D01*
X78057142Y-120912000D01*
X78009523Y-120864380D01*
X78009523Y-120959619D01*
X78914285Y-121864380D02*
X78914285Y-120864380D01*
X78914285Y-121816761D02*
X78819047Y-121864380D01*
X78628571Y-121864380D01*
X78533333Y-121816761D01*
X78485714Y-121769142D01*
X78438095Y-121673904D01*
X78438095Y-121388190D01*
X78485714Y-121292952D01*
X78533333Y-121245333D01*
X78628571Y-121197714D01*
X78819047Y-121197714D01*
X78914285Y-121245333D01*
X79771428Y-121816761D02*
X79676190Y-121864380D01*
X79485714Y-121864380D01*
X79390476Y-121816761D01*
X79342857Y-121721523D01*
X79342857Y-121340571D01*
X79390476Y-121245333D01*
X79485714Y-121197714D01*
X79676190Y-121197714D01*
X79771428Y-121245333D01*
X79819047Y-121340571D01*
X79819047Y-121435809D01*
X79342857Y-121531047D01*
%TO.C,L4*%
X92154761Y-121864380D02*
X91678571Y-121864380D01*
X91678571Y-120864380D01*
X92488095Y-121864380D02*
X92488095Y-121197714D01*
X92488095Y-120864380D02*
X92440476Y-120912000D01*
X92488095Y-120959619D01*
X92535714Y-120912000D01*
X92488095Y-120864380D01*
X92488095Y-120959619D01*
X93392857Y-121197714D02*
X93392857Y-122007238D01*
X93345238Y-122102476D01*
X93297619Y-122150095D01*
X93202380Y-122197714D01*
X93059523Y-122197714D01*
X92964285Y-122150095D01*
X93392857Y-121816761D02*
X93297619Y-121864380D01*
X93107142Y-121864380D01*
X93011904Y-121816761D01*
X92964285Y-121769142D01*
X92916666Y-121673904D01*
X92916666Y-121388190D01*
X92964285Y-121292952D01*
X93011904Y-121245333D01*
X93107142Y-121197714D01*
X93297619Y-121197714D01*
X93392857Y-121245333D01*
X93869047Y-121864380D02*
X93869047Y-120864380D01*
X94297619Y-121864380D02*
X94297619Y-121340571D01*
X94250000Y-121245333D01*
X94154761Y-121197714D01*
X94011904Y-121197714D01*
X93916666Y-121245333D01*
X93869047Y-121292952D01*
X94630952Y-121197714D02*
X95011904Y-121197714D01*
X94773809Y-120864380D02*
X94773809Y-121721523D01*
X94821428Y-121816761D01*
X94916666Y-121864380D01*
X95011904Y-121864380D01*
X96059523Y-121816761D02*
X96202380Y-121864380D01*
X96440476Y-121864380D01*
X96535714Y-121816761D01*
X96583333Y-121769142D01*
X96630952Y-121673904D01*
X96630952Y-121578666D01*
X96583333Y-121483428D01*
X96535714Y-121435809D01*
X96440476Y-121388190D01*
X96250000Y-121340571D01*
X96154761Y-121292952D01*
X96107142Y-121245333D01*
X96059523Y-121150095D01*
X96059523Y-121054857D01*
X96107142Y-120959619D01*
X96154761Y-120912000D01*
X96250000Y-120864380D01*
X96488095Y-120864380D01*
X96630952Y-120912000D01*
X97059523Y-121864380D02*
X97059523Y-121197714D01*
X97059523Y-120864380D02*
X97011904Y-120912000D01*
X97059523Y-120959619D01*
X97107142Y-120912000D01*
X97059523Y-120864380D01*
X97059523Y-120959619D01*
X97964285Y-121864380D02*
X97964285Y-120864380D01*
X97964285Y-121816761D02*
X97869047Y-121864380D01*
X97678571Y-121864380D01*
X97583333Y-121816761D01*
X97535714Y-121769142D01*
X97488095Y-121673904D01*
X97488095Y-121388190D01*
X97535714Y-121292952D01*
X97583333Y-121245333D01*
X97678571Y-121197714D01*
X97869047Y-121197714D01*
X97964285Y-121245333D01*
X98821428Y-121816761D02*
X98726190Y-121864380D01*
X98535714Y-121864380D01*
X98440476Y-121816761D01*
X98392857Y-121721523D01*
X98392857Y-121340571D01*
X98440476Y-121245333D01*
X98535714Y-121197714D01*
X98726190Y-121197714D01*
X98821428Y-121245333D01*
X98869047Y-121340571D01*
X98869047Y-121435809D01*
X98392857Y-121531047D01*
%TO.C,L5*%
X35004761Y-140914380D02*
X34528571Y-140914380D01*
X34528571Y-139914380D01*
X35338095Y-140914380D02*
X35338095Y-140247714D01*
X35338095Y-139914380D02*
X35290476Y-139962000D01*
X35338095Y-140009619D01*
X35385714Y-139962000D01*
X35338095Y-139914380D01*
X35338095Y-140009619D01*
X36242857Y-140247714D02*
X36242857Y-141057238D01*
X36195238Y-141152476D01*
X36147619Y-141200095D01*
X36052380Y-141247714D01*
X35909523Y-141247714D01*
X35814285Y-141200095D01*
X36242857Y-140866761D02*
X36147619Y-140914380D01*
X35957142Y-140914380D01*
X35861904Y-140866761D01*
X35814285Y-140819142D01*
X35766666Y-140723904D01*
X35766666Y-140438190D01*
X35814285Y-140342952D01*
X35861904Y-140295333D01*
X35957142Y-140247714D01*
X36147619Y-140247714D01*
X36242857Y-140295333D01*
X36719047Y-140914380D02*
X36719047Y-139914380D01*
X37147619Y-140914380D02*
X37147619Y-140390571D01*
X37100000Y-140295333D01*
X37004761Y-140247714D01*
X36861904Y-140247714D01*
X36766666Y-140295333D01*
X36719047Y-140342952D01*
X37480952Y-140247714D02*
X37861904Y-140247714D01*
X37623809Y-139914380D02*
X37623809Y-140771523D01*
X37671428Y-140866761D01*
X37766666Y-140914380D01*
X37861904Y-140914380D01*
X38909523Y-140866761D02*
X39052380Y-140914380D01*
X39290476Y-140914380D01*
X39385714Y-140866761D01*
X39433333Y-140819142D01*
X39480952Y-140723904D01*
X39480952Y-140628666D01*
X39433333Y-140533428D01*
X39385714Y-140485809D01*
X39290476Y-140438190D01*
X39100000Y-140390571D01*
X39004761Y-140342952D01*
X38957142Y-140295333D01*
X38909523Y-140200095D01*
X38909523Y-140104857D01*
X38957142Y-140009619D01*
X39004761Y-139962000D01*
X39100000Y-139914380D01*
X39338095Y-139914380D01*
X39480952Y-139962000D01*
X39909523Y-140914380D02*
X39909523Y-140247714D01*
X39909523Y-139914380D02*
X39861904Y-139962000D01*
X39909523Y-140009619D01*
X39957142Y-139962000D01*
X39909523Y-139914380D01*
X39909523Y-140009619D01*
X40814285Y-140914380D02*
X40814285Y-139914380D01*
X40814285Y-140866761D02*
X40719047Y-140914380D01*
X40528571Y-140914380D01*
X40433333Y-140866761D01*
X40385714Y-140819142D01*
X40338095Y-140723904D01*
X40338095Y-140438190D01*
X40385714Y-140342952D01*
X40433333Y-140295333D01*
X40528571Y-140247714D01*
X40719047Y-140247714D01*
X40814285Y-140295333D01*
X41671428Y-140866761D02*
X41576190Y-140914380D01*
X41385714Y-140914380D01*
X41290476Y-140866761D01*
X41242857Y-140771523D01*
X41242857Y-140390571D01*
X41290476Y-140295333D01*
X41385714Y-140247714D01*
X41576190Y-140247714D01*
X41671428Y-140295333D01*
X41719047Y-140390571D01*
X41719047Y-140485809D01*
X41242857Y-140581047D01*
%TO.C,L6*%
X54054761Y-140914380D02*
X53578571Y-140914380D01*
X53578571Y-139914380D01*
X54388095Y-140914380D02*
X54388095Y-140247714D01*
X54388095Y-139914380D02*
X54340476Y-139962000D01*
X54388095Y-140009619D01*
X54435714Y-139962000D01*
X54388095Y-139914380D01*
X54388095Y-140009619D01*
X55292857Y-140247714D02*
X55292857Y-141057238D01*
X55245238Y-141152476D01*
X55197619Y-141200095D01*
X55102380Y-141247714D01*
X54959523Y-141247714D01*
X54864285Y-141200095D01*
X55292857Y-140866761D02*
X55197619Y-140914380D01*
X55007142Y-140914380D01*
X54911904Y-140866761D01*
X54864285Y-140819142D01*
X54816666Y-140723904D01*
X54816666Y-140438190D01*
X54864285Y-140342952D01*
X54911904Y-140295333D01*
X55007142Y-140247714D01*
X55197619Y-140247714D01*
X55292857Y-140295333D01*
X55769047Y-140914380D02*
X55769047Y-139914380D01*
X56197619Y-140914380D02*
X56197619Y-140390571D01*
X56150000Y-140295333D01*
X56054761Y-140247714D01*
X55911904Y-140247714D01*
X55816666Y-140295333D01*
X55769047Y-140342952D01*
X56530952Y-140247714D02*
X56911904Y-140247714D01*
X56673809Y-139914380D02*
X56673809Y-140771523D01*
X56721428Y-140866761D01*
X56816666Y-140914380D01*
X56911904Y-140914380D01*
X57959523Y-140866761D02*
X58102380Y-140914380D01*
X58340476Y-140914380D01*
X58435714Y-140866761D01*
X58483333Y-140819142D01*
X58530952Y-140723904D01*
X58530952Y-140628666D01*
X58483333Y-140533428D01*
X58435714Y-140485809D01*
X58340476Y-140438190D01*
X58150000Y-140390571D01*
X58054761Y-140342952D01*
X58007142Y-140295333D01*
X57959523Y-140200095D01*
X57959523Y-140104857D01*
X58007142Y-140009619D01*
X58054761Y-139962000D01*
X58150000Y-139914380D01*
X58388095Y-139914380D01*
X58530952Y-139962000D01*
X58959523Y-140914380D02*
X58959523Y-140247714D01*
X58959523Y-139914380D02*
X58911904Y-139962000D01*
X58959523Y-140009619D01*
X59007142Y-139962000D01*
X58959523Y-139914380D01*
X58959523Y-140009619D01*
X59864285Y-140914380D02*
X59864285Y-139914380D01*
X59864285Y-140866761D02*
X59769047Y-140914380D01*
X59578571Y-140914380D01*
X59483333Y-140866761D01*
X59435714Y-140819142D01*
X59388095Y-140723904D01*
X59388095Y-140438190D01*
X59435714Y-140342952D01*
X59483333Y-140295333D01*
X59578571Y-140247714D01*
X59769047Y-140247714D01*
X59864285Y-140295333D01*
X60721428Y-140866761D02*
X60626190Y-140914380D01*
X60435714Y-140914380D01*
X60340476Y-140866761D01*
X60292857Y-140771523D01*
X60292857Y-140390571D01*
X60340476Y-140295333D01*
X60435714Y-140247714D01*
X60626190Y-140247714D01*
X60721428Y-140295333D01*
X60769047Y-140390571D01*
X60769047Y-140485809D01*
X60292857Y-140581047D01*
%TO.C,L7*%
X73104761Y-140914380D02*
X72628571Y-140914380D01*
X72628571Y-139914380D01*
X73438095Y-140914380D02*
X73438095Y-140247714D01*
X73438095Y-139914380D02*
X73390476Y-139962000D01*
X73438095Y-140009619D01*
X73485714Y-139962000D01*
X73438095Y-139914380D01*
X73438095Y-140009619D01*
X74342857Y-140247714D02*
X74342857Y-141057238D01*
X74295238Y-141152476D01*
X74247619Y-141200095D01*
X74152380Y-141247714D01*
X74009523Y-141247714D01*
X73914285Y-141200095D01*
X74342857Y-140866761D02*
X74247619Y-140914380D01*
X74057142Y-140914380D01*
X73961904Y-140866761D01*
X73914285Y-140819142D01*
X73866666Y-140723904D01*
X73866666Y-140438190D01*
X73914285Y-140342952D01*
X73961904Y-140295333D01*
X74057142Y-140247714D01*
X74247619Y-140247714D01*
X74342857Y-140295333D01*
X74819047Y-140914380D02*
X74819047Y-139914380D01*
X75247619Y-140914380D02*
X75247619Y-140390571D01*
X75200000Y-140295333D01*
X75104761Y-140247714D01*
X74961904Y-140247714D01*
X74866666Y-140295333D01*
X74819047Y-140342952D01*
X75580952Y-140247714D02*
X75961904Y-140247714D01*
X75723809Y-139914380D02*
X75723809Y-140771523D01*
X75771428Y-140866761D01*
X75866666Y-140914380D01*
X75961904Y-140914380D01*
X77009523Y-140866761D02*
X77152380Y-140914380D01*
X77390476Y-140914380D01*
X77485714Y-140866761D01*
X77533333Y-140819142D01*
X77580952Y-140723904D01*
X77580952Y-140628666D01*
X77533333Y-140533428D01*
X77485714Y-140485809D01*
X77390476Y-140438190D01*
X77200000Y-140390571D01*
X77104761Y-140342952D01*
X77057142Y-140295333D01*
X77009523Y-140200095D01*
X77009523Y-140104857D01*
X77057142Y-140009619D01*
X77104761Y-139962000D01*
X77200000Y-139914380D01*
X77438095Y-139914380D01*
X77580952Y-139962000D01*
X78009523Y-140914380D02*
X78009523Y-140247714D01*
X78009523Y-139914380D02*
X77961904Y-139962000D01*
X78009523Y-140009619D01*
X78057142Y-139962000D01*
X78009523Y-139914380D01*
X78009523Y-140009619D01*
X78914285Y-140914380D02*
X78914285Y-139914380D01*
X78914285Y-140866761D02*
X78819047Y-140914380D01*
X78628571Y-140914380D01*
X78533333Y-140866761D01*
X78485714Y-140819142D01*
X78438095Y-140723904D01*
X78438095Y-140438190D01*
X78485714Y-140342952D01*
X78533333Y-140295333D01*
X78628571Y-140247714D01*
X78819047Y-140247714D01*
X78914285Y-140295333D01*
X79771428Y-140866761D02*
X79676190Y-140914380D01*
X79485714Y-140914380D01*
X79390476Y-140866761D01*
X79342857Y-140771523D01*
X79342857Y-140390571D01*
X79390476Y-140295333D01*
X79485714Y-140247714D01*
X79676190Y-140247714D01*
X79771428Y-140295333D01*
X79819047Y-140390571D01*
X79819047Y-140485809D01*
X79342857Y-140581047D01*
%TO.C,L8*%
X92154761Y-140914380D02*
X91678571Y-140914380D01*
X91678571Y-139914380D01*
X92488095Y-140914380D02*
X92488095Y-140247714D01*
X92488095Y-139914380D02*
X92440476Y-139962000D01*
X92488095Y-140009619D01*
X92535714Y-139962000D01*
X92488095Y-139914380D01*
X92488095Y-140009619D01*
X93392857Y-140247714D02*
X93392857Y-141057238D01*
X93345238Y-141152476D01*
X93297619Y-141200095D01*
X93202380Y-141247714D01*
X93059523Y-141247714D01*
X92964285Y-141200095D01*
X93392857Y-140866761D02*
X93297619Y-140914380D01*
X93107142Y-140914380D01*
X93011904Y-140866761D01*
X92964285Y-140819142D01*
X92916666Y-140723904D01*
X92916666Y-140438190D01*
X92964285Y-140342952D01*
X93011904Y-140295333D01*
X93107142Y-140247714D01*
X93297619Y-140247714D01*
X93392857Y-140295333D01*
X93869047Y-140914380D02*
X93869047Y-139914380D01*
X94297619Y-140914380D02*
X94297619Y-140390571D01*
X94250000Y-140295333D01*
X94154761Y-140247714D01*
X94011904Y-140247714D01*
X93916666Y-140295333D01*
X93869047Y-140342952D01*
X94630952Y-140247714D02*
X95011904Y-140247714D01*
X94773809Y-139914380D02*
X94773809Y-140771523D01*
X94821428Y-140866761D01*
X94916666Y-140914380D01*
X95011904Y-140914380D01*
X96059523Y-140866761D02*
X96202380Y-140914380D01*
X96440476Y-140914380D01*
X96535714Y-140866761D01*
X96583333Y-140819142D01*
X96630952Y-140723904D01*
X96630952Y-140628666D01*
X96583333Y-140533428D01*
X96535714Y-140485809D01*
X96440476Y-140438190D01*
X96250000Y-140390571D01*
X96154761Y-140342952D01*
X96107142Y-140295333D01*
X96059523Y-140200095D01*
X96059523Y-140104857D01*
X96107142Y-140009619D01*
X96154761Y-139962000D01*
X96250000Y-139914380D01*
X96488095Y-139914380D01*
X96630952Y-139962000D01*
X97059523Y-140914380D02*
X97059523Y-140247714D01*
X97059523Y-139914380D02*
X97011904Y-139962000D01*
X97059523Y-140009619D01*
X97107142Y-139962000D01*
X97059523Y-139914380D01*
X97059523Y-140009619D01*
X97964285Y-140914380D02*
X97964285Y-139914380D01*
X97964285Y-140866761D02*
X97869047Y-140914380D01*
X97678571Y-140914380D01*
X97583333Y-140866761D01*
X97535714Y-140819142D01*
X97488095Y-140723904D01*
X97488095Y-140438190D01*
X97535714Y-140342952D01*
X97583333Y-140295333D01*
X97678571Y-140247714D01*
X97869047Y-140247714D01*
X97964285Y-140295333D01*
X98821428Y-140866761D02*
X98726190Y-140914380D01*
X98535714Y-140914380D01*
X98440476Y-140866761D01*
X98392857Y-140771523D01*
X98392857Y-140390571D01*
X98440476Y-140295333D01*
X98535714Y-140247714D01*
X98726190Y-140247714D01*
X98821428Y-140295333D01*
X98869047Y-140390571D01*
X98869047Y-140485809D01*
X98392857Y-140581047D01*
%TO.C,L9*%
X35004761Y-159964380D02*
X34528571Y-159964380D01*
X34528571Y-158964380D01*
X35338095Y-159964380D02*
X35338095Y-159297714D01*
X35338095Y-158964380D02*
X35290476Y-159012000D01*
X35338095Y-159059619D01*
X35385714Y-159012000D01*
X35338095Y-158964380D01*
X35338095Y-159059619D01*
X36242857Y-159297714D02*
X36242857Y-160107238D01*
X36195238Y-160202476D01*
X36147619Y-160250095D01*
X36052380Y-160297714D01*
X35909523Y-160297714D01*
X35814285Y-160250095D01*
X36242857Y-159916761D02*
X36147619Y-159964380D01*
X35957142Y-159964380D01*
X35861904Y-159916761D01*
X35814285Y-159869142D01*
X35766666Y-159773904D01*
X35766666Y-159488190D01*
X35814285Y-159392952D01*
X35861904Y-159345333D01*
X35957142Y-159297714D01*
X36147619Y-159297714D01*
X36242857Y-159345333D01*
X36719047Y-159964380D02*
X36719047Y-158964380D01*
X37147619Y-159964380D02*
X37147619Y-159440571D01*
X37100000Y-159345333D01*
X37004761Y-159297714D01*
X36861904Y-159297714D01*
X36766666Y-159345333D01*
X36719047Y-159392952D01*
X37480952Y-159297714D02*
X37861904Y-159297714D01*
X37623809Y-158964380D02*
X37623809Y-159821523D01*
X37671428Y-159916761D01*
X37766666Y-159964380D01*
X37861904Y-159964380D01*
X38909523Y-159916761D02*
X39052380Y-159964380D01*
X39290476Y-159964380D01*
X39385714Y-159916761D01*
X39433333Y-159869142D01*
X39480952Y-159773904D01*
X39480952Y-159678666D01*
X39433333Y-159583428D01*
X39385714Y-159535809D01*
X39290476Y-159488190D01*
X39100000Y-159440571D01*
X39004761Y-159392952D01*
X38957142Y-159345333D01*
X38909523Y-159250095D01*
X38909523Y-159154857D01*
X38957142Y-159059619D01*
X39004761Y-159012000D01*
X39100000Y-158964380D01*
X39338095Y-158964380D01*
X39480952Y-159012000D01*
X39909523Y-159964380D02*
X39909523Y-159297714D01*
X39909523Y-158964380D02*
X39861904Y-159012000D01*
X39909523Y-159059619D01*
X39957142Y-159012000D01*
X39909523Y-158964380D01*
X39909523Y-159059619D01*
X40814285Y-159964380D02*
X40814285Y-158964380D01*
X40814285Y-159916761D02*
X40719047Y-159964380D01*
X40528571Y-159964380D01*
X40433333Y-159916761D01*
X40385714Y-159869142D01*
X40338095Y-159773904D01*
X40338095Y-159488190D01*
X40385714Y-159392952D01*
X40433333Y-159345333D01*
X40528571Y-159297714D01*
X40719047Y-159297714D01*
X40814285Y-159345333D01*
X41671428Y-159916761D02*
X41576190Y-159964380D01*
X41385714Y-159964380D01*
X41290476Y-159916761D01*
X41242857Y-159821523D01*
X41242857Y-159440571D01*
X41290476Y-159345333D01*
X41385714Y-159297714D01*
X41576190Y-159297714D01*
X41671428Y-159345333D01*
X41719047Y-159440571D01*
X41719047Y-159535809D01*
X41242857Y-159631047D01*
%TO.C,L10*%
X54054761Y-159964380D02*
X53578571Y-159964380D01*
X53578571Y-158964380D01*
X54388095Y-159964380D02*
X54388095Y-159297714D01*
X54388095Y-158964380D02*
X54340476Y-159012000D01*
X54388095Y-159059619D01*
X54435714Y-159012000D01*
X54388095Y-158964380D01*
X54388095Y-159059619D01*
X55292857Y-159297714D02*
X55292857Y-160107238D01*
X55245238Y-160202476D01*
X55197619Y-160250095D01*
X55102380Y-160297714D01*
X54959523Y-160297714D01*
X54864285Y-160250095D01*
X55292857Y-159916761D02*
X55197619Y-159964380D01*
X55007142Y-159964380D01*
X54911904Y-159916761D01*
X54864285Y-159869142D01*
X54816666Y-159773904D01*
X54816666Y-159488190D01*
X54864285Y-159392952D01*
X54911904Y-159345333D01*
X55007142Y-159297714D01*
X55197619Y-159297714D01*
X55292857Y-159345333D01*
X55769047Y-159964380D02*
X55769047Y-158964380D01*
X56197619Y-159964380D02*
X56197619Y-159440571D01*
X56150000Y-159345333D01*
X56054761Y-159297714D01*
X55911904Y-159297714D01*
X55816666Y-159345333D01*
X55769047Y-159392952D01*
X56530952Y-159297714D02*
X56911904Y-159297714D01*
X56673809Y-158964380D02*
X56673809Y-159821523D01*
X56721428Y-159916761D01*
X56816666Y-159964380D01*
X56911904Y-159964380D01*
X57959523Y-159916761D02*
X58102380Y-159964380D01*
X58340476Y-159964380D01*
X58435714Y-159916761D01*
X58483333Y-159869142D01*
X58530952Y-159773904D01*
X58530952Y-159678666D01*
X58483333Y-159583428D01*
X58435714Y-159535809D01*
X58340476Y-159488190D01*
X58150000Y-159440571D01*
X58054761Y-159392952D01*
X58007142Y-159345333D01*
X57959523Y-159250095D01*
X57959523Y-159154857D01*
X58007142Y-159059619D01*
X58054761Y-159012000D01*
X58150000Y-158964380D01*
X58388095Y-158964380D01*
X58530952Y-159012000D01*
X58959523Y-159964380D02*
X58959523Y-159297714D01*
X58959523Y-158964380D02*
X58911904Y-159012000D01*
X58959523Y-159059619D01*
X59007142Y-159012000D01*
X58959523Y-158964380D01*
X58959523Y-159059619D01*
X59864285Y-159964380D02*
X59864285Y-158964380D01*
X59864285Y-159916761D02*
X59769047Y-159964380D01*
X59578571Y-159964380D01*
X59483333Y-159916761D01*
X59435714Y-159869142D01*
X59388095Y-159773904D01*
X59388095Y-159488190D01*
X59435714Y-159392952D01*
X59483333Y-159345333D01*
X59578571Y-159297714D01*
X59769047Y-159297714D01*
X59864285Y-159345333D01*
X60721428Y-159916761D02*
X60626190Y-159964380D01*
X60435714Y-159964380D01*
X60340476Y-159916761D01*
X60292857Y-159821523D01*
X60292857Y-159440571D01*
X60340476Y-159345333D01*
X60435714Y-159297714D01*
X60626190Y-159297714D01*
X60721428Y-159345333D01*
X60769047Y-159440571D01*
X60769047Y-159535809D01*
X60292857Y-159631047D01*
%TO.C,L11*%
X73104761Y-159964380D02*
X72628571Y-159964380D01*
X72628571Y-158964380D01*
X73438095Y-159964380D02*
X73438095Y-159297714D01*
X73438095Y-158964380D02*
X73390476Y-159012000D01*
X73438095Y-159059619D01*
X73485714Y-159012000D01*
X73438095Y-158964380D01*
X73438095Y-159059619D01*
X74342857Y-159297714D02*
X74342857Y-160107238D01*
X74295238Y-160202476D01*
X74247619Y-160250095D01*
X74152380Y-160297714D01*
X74009523Y-160297714D01*
X73914285Y-160250095D01*
X74342857Y-159916761D02*
X74247619Y-159964380D01*
X74057142Y-159964380D01*
X73961904Y-159916761D01*
X73914285Y-159869142D01*
X73866666Y-159773904D01*
X73866666Y-159488190D01*
X73914285Y-159392952D01*
X73961904Y-159345333D01*
X74057142Y-159297714D01*
X74247619Y-159297714D01*
X74342857Y-159345333D01*
X74819047Y-159964380D02*
X74819047Y-158964380D01*
X75247619Y-159964380D02*
X75247619Y-159440571D01*
X75200000Y-159345333D01*
X75104761Y-159297714D01*
X74961904Y-159297714D01*
X74866666Y-159345333D01*
X74819047Y-159392952D01*
X75580952Y-159297714D02*
X75961904Y-159297714D01*
X75723809Y-158964380D02*
X75723809Y-159821523D01*
X75771428Y-159916761D01*
X75866666Y-159964380D01*
X75961904Y-159964380D01*
X77009523Y-159916761D02*
X77152380Y-159964380D01*
X77390476Y-159964380D01*
X77485714Y-159916761D01*
X77533333Y-159869142D01*
X77580952Y-159773904D01*
X77580952Y-159678666D01*
X77533333Y-159583428D01*
X77485714Y-159535809D01*
X77390476Y-159488190D01*
X77200000Y-159440571D01*
X77104761Y-159392952D01*
X77057142Y-159345333D01*
X77009523Y-159250095D01*
X77009523Y-159154857D01*
X77057142Y-159059619D01*
X77104761Y-159012000D01*
X77200000Y-158964380D01*
X77438095Y-158964380D01*
X77580952Y-159012000D01*
X78009523Y-159964380D02*
X78009523Y-159297714D01*
X78009523Y-158964380D02*
X77961904Y-159012000D01*
X78009523Y-159059619D01*
X78057142Y-159012000D01*
X78009523Y-158964380D01*
X78009523Y-159059619D01*
X78914285Y-159964380D02*
X78914285Y-158964380D01*
X78914285Y-159916761D02*
X78819047Y-159964380D01*
X78628571Y-159964380D01*
X78533333Y-159916761D01*
X78485714Y-159869142D01*
X78438095Y-159773904D01*
X78438095Y-159488190D01*
X78485714Y-159392952D01*
X78533333Y-159345333D01*
X78628571Y-159297714D01*
X78819047Y-159297714D01*
X78914285Y-159345333D01*
X79771428Y-159916761D02*
X79676190Y-159964380D01*
X79485714Y-159964380D01*
X79390476Y-159916761D01*
X79342857Y-159821523D01*
X79342857Y-159440571D01*
X79390476Y-159345333D01*
X79485714Y-159297714D01*
X79676190Y-159297714D01*
X79771428Y-159345333D01*
X79819047Y-159440571D01*
X79819047Y-159535809D01*
X79342857Y-159631047D01*
%TO.C,L12*%
X92154761Y-159964380D02*
X91678571Y-159964380D01*
X91678571Y-158964380D01*
X92488095Y-159964380D02*
X92488095Y-159297714D01*
X92488095Y-158964380D02*
X92440476Y-159012000D01*
X92488095Y-159059619D01*
X92535714Y-159012000D01*
X92488095Y-158964380D01*
X92488095Y-159059619D01*
X93392857Y-159297714D02*
X93392857Y-160107238D01*
X93345238Y-160202476D01*
X93297619Y-160250095D01*
X93202380Y-160297714D01*
X93059523Y-160297714D01*
X92964285Y-160250095D01*
X93392857Y-159916761D02*
X93297619Y-159964380D01*
X93107142Y-159964380D01*
X93011904Y-159916761D01*
X92964285Y-159869142D01*
X92916666Y-159773904D01*
X92916666Y-159488190D01*
X92964285Y-159392952D01*
X93011904Y-159345333D01*
X93107142Y-159297714D01*
X93297619Y-159297714D01*
X93392857Y-159345333D01*
X93869047Y-159964380D02*
X93869047Y-158964380D01*
X94297619Y-159964380D02*
X94297619Y-159440571D01*
X94250000Y-159345333D01*
X94154761Y-159297714D01*
X94011904Y-159297714D01*
X93916666Y-159345333D01*
X93869047Y-159392952D01*
X94630952Y-159297714D02*
X95011904Y-159297714D01*
X94773809Y-158964380D02*
X94773809Y-159821523D01*
X94821428Y-159916761D01*
X94916666Y-159964380D01*
X95011904Y-159964380D01*
X96059523Y-159916761D02*
X96202380Y-159964380D01*
X96440476Y-159964380D01*
X96535714Y-159916761D01*
X96583333Y-159869142D01*
X96630952Y-159773904D01*
X96630952Y-159678666D01*
X96583333Y-159583428D01*
X96535714Y-159535809D01*
X96440476Y-159488190D01*
X96250000Y-159440571D01*
X96154761Y-159392952D01*
X96107142Y-159345333D01*
X96059523Y-159250095D01*
X96059523Y-159154857D01*
X96107142Y-159059619D01*
X96154761Y-159012000D01*
X96250000Y-158964380D01*
X96488095Y-158964380D01*
X96630952Y-159012000D01*
X97059523Y-159964380D02*
X97059523Y-159297714D01*
X97059523Y-158964380D02*
X97011904Y-159012000D01*
X97059523Y-159059619D01*
X97107142Y-159012000D01*
X97059523Y-158964380D01*
X97059523Y-159059619D01*
X97964285Y-159964380D02*
X97964285Y-158964380D01*
X97964285Y-159916761D02*
X97869047Y-159964380D01*
X97678571Y-159964380D01*
X97583333Y-159916761D01*
X97535714Y-159869142D01*
X97488095Y-159773904D01*
X97488095Y-159488190D01*
X97535714Y-159392952D01*
X97583333Y-159345333D01*
X97678571Y-159297714D01*
X97869047Y-159297714D01*
X97964285Y-159345333D01*
X98821428Y-159916761D02*
X98726190Y-159964380D01*
X98535714Y-159964380D01*
X98440476Y-159916761D01*
X98392857Y-159821523D01*
X98392857Y-159440571D01*
X98440476Y-159345333D01*
X98535714Y-159297714D01*
X98726190Y-159297714D01*
X98821428Y-159345333D01*
X98869047Y-159440571D01*
X98869047Y-159535809D01*
X98392857Y-159631047D01*
%TO.C,L13*%
X35004761Y-179014380D02*
X34528571Y-179014380D01*
X34528571Y-178014380D01*
X35338095Y-179014380D02*
X35338095Y-178347714D01*
X35338095Y-178014380D02*
X35290476Y-178062000D01*
X35338095Y-178109619D01*
X35385714Y-178062000D01*
X35338095Y-178014380D01*
X35338095Y-178109619D01*
X36242857Y-178347714D02*
X36242857Y-179157238D01*
X36195238Y-179252476D01*
X36147619Y-179300095D01*
X36052380Y-179347714D01*
X35909523Y-179347714D01*
X35814285Y-179300095D01*
X36242857Y-178966761D02*
X36147619Y-179014380D01*
X35957142Y-179014380D01*
X35861904Y-178966761D01*
X35814285Y-178919142D01*
X35766666Y-178823904D01*
X35766666Y-178538190D01*
X35814285Y-178442952D01*
X35861904Y-178395333D01*
X35957142Y-178347714D01*
X36147619Y-178347714D01*
X36242857Y-178395333D01*
X36719047Y-179014380D02*
X36719047Y-178014380D01*
X37147619Y-179014380D02*
X37147619Y-178490571D01*
X37100000Y-178395333D01*
X37004761Y-178347714D01*
X36861904Y-178347714D01*
X36766666Y-178395333D01*
X36719047Y-178442952D01*
X37480952Y-178347714D02*
X37861904Y-178347714D01*
X37623809Y-178014380D02*
X37623809Y-178871523D01*
X37671428Y-178966761D01*
X37766666Y-179014380D01*
X37861904Y-179014380D01*
X38909523Y-178966761D02*
X39052380Y-179014380D01*
X39290476Y-179014380D01*
X39385714Y-178966761D01*
X39433333Y-178919142D01*
X39480952Y-178823904D01*
X39480952Y-178728666D01*
X39433333Y-178633428D01*
X39385714Y-178585809D01*
X39290476Y-178538190D01*
X39100000Y-178490571D01*
X39004761Y-178442952D01*
X38957142Y-178395333D01*
X38909523Y-178300095D01*
X38909523Y-178204857D01*
X38957142Y-178109619D01*
X39004761Y-178062000D01*
X39100000Y-178014380D01*
X39338095Y-178014380D01*
X39480952Y-178062000D01*
X39909523Y-179014380D02*
X39909523Y-178347714D01*
X39909523Y-178014380D02*
X39861904Y-178062000D01*
X39909523Y-178109619D01*
X39957142Y-178062000D01*
X39909523Y-178014380D01*
X39909523Y-178109619D01*
X40814285Y-179014380D02*
X40814285Y-178014380D01*
X40814285Y-178966761D02*
X40719047Y-179014380D01*
X40528571Y-179014380D01*
X40433333Y-178966761D01*
X40385714Y-178919142D01*
X40338095Y-178823904D01*
X40338095Y-178538190D01*
X40385714Y-178442952D01*
X40433333Y-178395333D01*
X40528571Y-178347714D01*
X40719047Y-178347714D01*
X40814285Y-178395333D01*
X41671428Y-178966761D02*
X41576190Y-179014380D01*
X41385714Y-179014380D01*
X41290476Y-178966761D01*
X41242857Y-178871523D01*
X41242857Y-178490571D01*
X41290476Y-178395333D01*
X41385714Y-178347714D01*
X41576190Y-178347714D01*
X41671428Y-178395333D01*
X41719047Y-178490571D01*
X41719047Y-178585809D01*
X41242857Y-178681047D01*
%TO.C,L14*%
X54054761Y-179014380D02*
X53578571Y-179014380D01*
X53578571Y-178014380D01*
X54388095Y-179014380D02*
X54388095Y-178347714D01*
X54388095Y-178014380D02*
X54340476Y-178062000D01*
X54388095Y-178109619D01*
X54435714Y-178062000D01*
X54388095Y-178014380D01*
X54388095Y-178109619D01*
X55292857Y-178347714D02*
X55292857Y-179157238D01*
X55245238Y-179252476D01*
X55197619Y-179300095D01*
X55102380Y-179347714D01*
X54959523Y-179347714D01*
X54864285Y-179300095D01*
X55292857Y-178966761D02*
X55197619Y-179014380D01*
X55007142Y-179014380D01*
X54911904Y-178966761D01*
X54864285Y-178919142D01*
X54816666Y-178823904D01*
X54816666Y-178538190D01*
X54864285Y-178442952D01*
X54911904Y-178395333D01*
X55007142Y-178347714D01*
X55197619Y-178347714D01*
X55292857Y-178395333D01*
X55769047Y-179014380D02*
X55769047Y-178014380D01*
X56197619Y-179014380D02*
X56197619Y-178490571D01*
X56150000Y-178395333D01*
X56054761Y-178347714D01*
X55911904Y-178347714D01*
X55816666Y-178395333D01*
X55769047Y-178442952D01*
X56530952Y-178347714D02*
X56911904Y-178347714D01*
X56673809Y-178014380D02*
X56673809Y-178871523D01*
X56721428Y-178966761D01*
X56816666Y-179014380D01*
X56911904Y-179014380D01*
X57959523Y-178966761D02*
X58102380Y-179014380D01*
X58340476Y-179014380D01*
X58435714Y-178966761D01*
X58483333Y-178919142D01*
X58530952Y-178823904D01*
X58530952Y-178728666D01*
X58483333Y-178633428D01*
X58435714Y-178585809D01*
X58340476Y-178538190D01*
X58150000Y-178490571D01*
X58054761Y-178442952D01*
X58007142Y-178395333D01*
X57959523Y-178300095D01*
X57959523Y-178204857D01*
X58007142Y-178109619D01*
X58054761Y-178062000D01*
X58150000Y-178014380D01*
X58388095Y-178014380D01*
X58530952Y-178062000D01*
X58959523Y-179014380D02*
X58959523Y-178347714D01*
X58959523Y-178014380D02*
X58911904Y-178062000D01*
X58959523Y-178109619D01*
X59007142Y-178062000D01*
X58959523Y-178014380D01*
X58959523Y-178109619D01*
X59864285Y-179014380D02*
X59864285Y-178014380D01*
X59864285Y-178966761D02*
X59769047Y-179014380D01*
X59578571Y-179014380D01*
X59483333Y-178966761D01*
X59435714Y-178919142D01*
X59388095Y-178823904D01*
X59388095Y-178538190D01*
X59435714Y-178442952D01*
X59483333Y-178395333D01*
X59578571Y-178347714D01*
X59769047Y-178347714D01*
X59864285Y-178395333D01*
X60721428Y-178966761D02*
X60626190Y-179014380D01*
X60435714Y-179014380D01*
X60340476Y-178966761D01*
X60292857Y-178871523D01*
X60292857Y-178490571D01*
X60340476Y-178395333D01*
X60435714Y-178347714D01*
X60626190Y-178347714D01*
X60721428Y-178395333D01*
X60769047Y-178490571D01*
X60769047Y-178585809D01*
X60292857Y-178681047D01*
%TO.C,L15*%
X73104761Y-179014380D02*
X72628571Y-179014380D01*
X72628571Y-178014380D01*
X73438095Y-179014380D02*
X73438095Y-178347714D01*
X73438095Y-178014380D02*
X73390476Y-178062000D01*
X73438095Y-178109619D01*
X73485714Y-178062000D01*
X73438095Y-178014380D01*
X73438095Y-178109619D01*
X74342857Y-178347714D02*
X74342857Y-179157238D01*
X74295238Y-179252476D01*
X74247619Y-179300095D01*
X74152380Y-179347714D01*
X74009523Y-179347714D01*
X73914285Y-179300095D01*
X74342857Y-178966761D02*
X74247619Y-179014380D01*
X74057142Y-179014380D01*
X73961904Y-178966761D01*
X73914285Y-178919142D01*
X73866666Y-178823904D01*
X73866666Y-178538190D01*
X73914285Y-178442952D01*
X73961904Y-178395333D01*
X74057142Y-178347714D01*
X74247619Y-178347714D01*
X74342857Y-178395333D01*
X74819047Y-179014380D02*
X74819047Y-178014380D01*
X75247619Y-179014380D02*
X75247619Y-178490571D01*
X75200000Y-178395333D01*
X75104761Y-178347714D01*
X74961904Y-178347714D01*
X74866666Y-178395333D01*
X74819047Y-178442952D01*
X75580952Y-178347714D02*
X75961904Y-178347714D01*
X75723809Y-178014380D02*
X75723809Y-178871523D01*
X75771428Y-178966761D01*
X75866666Y-179014380D01*
X75961904Y-179014380D01*
X77009523Y-178966761D02*
X77152380Y-179014380D01*
X77390476Y-179014380D01*
X77485714Y-178966761D01*
X77533333Y-178919142D01*
X77580952Y-178823904D01*
X77580952Y-178728666D01*
X77533333Y-178633428D01*
X77485714Y-178585809D01*
X77390476Y-178538190D01*
X77200000Y-178490571D01*
X77104761Y-178442952D01*
X77057142Y-178395333D01*
X77009523Y-178300095D01*
X77009523Y-178204857D01*
X77057142Y-178109619D01*
X77104761Y-178062000D01*
X77200000Y-178014380D01*
X77438095Y-178014380D01*
X77580952Y-178062000D01*
X78009523Y-179014380D02*
X78009523Y-178347714D01*
X78009523Y-178014380D02*
X77961904Y-178062000D01*
X78009523Y-178109619D01*
X78057142Y-178062000D01*
X78009523Y-178014380D01*
X78009523Y-178109619D01*
X78914285Y-179014380D02*
X78914285Y-178014380D01*
X78914285Y-178966761D02*
X78819047Y-179014380D01*
X78628571Y-179014380D01*
X78533333Y-178966761D01*
X78485714Y-178919142D01*
X78438095Y-178823904D01*
X78438095Y-178538190D01*
X78485714Y-178442952D01*
X78533333Y-178395333D01*
X78628571Y-178347714D01*
X78819047Y-178347714D01*
X78914285Y-178395333D01*
X79771428Y-178966761D02*
X79676190Y-179014380D01*
X79485714Y-179014380D01*
X79390476Y-178966761D01*
X79342857Y-178871523D01*
X79342857Y-178490571D01*
X79390476Y-178395333D01*
X79485714Y-178347714D01*
X79676190Y-178347714D01*
X79771428Y-178395333D01*
X79819047Y-178490571D01*
X79819047Y-178585809D01*
X79342857Y-178681047D01*
%TO.C,L16*%
X92154761Y-179014380D02*
X91678571Y-179014380D01*
X91678571Y-178014380D01*
X92488095Y-179014380D02*
X92488095Y-178347714D01*
X92488095Y-178014380D02*
X92440476Y-178062000D01*
X92488095Y-178109619D01*
X92535714Y-178062000D01*
X92488095Y-178014380D01*
X92488095Y-178109619D01*
X93392857Y-178347714D02*
X93392857Y-179157238D01*
X93345238Y-179252476D01*
X93297619Y-179300095D01*
X93202380Y-179347714D01*
X93059523Y-179347714D01*
X92964285Y-179300095D01*
X93392857Y-178966761D02*
X93297619Y-179014380D01*
X93107142Y-179014380D01*
X93011904Y-178966761D01*
X92964285Y-178919142D01*
X92916666Y-178823904D01*
X92916666Y-178538190D01*
X92964285Y-178442952D01*
X93011904Y-178395333D01*
X93107142Y-178347714D01*
X93297619Y-178347714D01*
X93392857Y-178395333D01*
X93869047Y-179014380D02*
X93869047Y-178014380D01*
X94297619Y-179014380D02*
X94297619Y-178490571D01*
X94250000Y-178395333D01*
X94154761Y-178347714D01*
X94011904Y-178347714D01*
X93916666Y-178395333D01*
X93869047Y-178442952D01*
X94630952Y-178347714D02*
X95011904Y-178347714D01*
X94773809Y-178014380D02*
X94773809Y-178871523D01*
X94821428Y-178966761D01*
X94916666Y-179014380D01*
X95011904Y-179014380D01*
X96059523Y-178966761D02*
X96202380Y-179014380D01*
X96440476Y-179014380D01*
X96535714Y-178966761D01*
X96583333Y-178919142D01*
X96630952Y-178823904D01*
X96630952Y-178728666D01*
X96583333Y-178633428D01*
X96535714Y-178585809D01*
X96440476Y-178538190D01*
X96250000Y-178490571D01*
X96154761Y-178442952D01*
X96107142Y-178395333D01*
X96059523Y-178300095D01*
X96059523Y-178204857D01*
X96107142Y-178109619D01*
X96154761Y-178062000D01*
X96250000Y-178014380D01*
X96488095Y-178014380D01*
X96630952Y-178062000D01*
X97059523Y-179014380D02*
X97059523Y-178347714D01*
X97059523Y-178014380D02*
X97011904Y-178062000D01*
X97059523Y-178109619D01*
X97107142Y-178062000D01*
X97059523Y-178014380D01*
X97059523Y-178109619D01*
X97964285Y-179014380D02*
X97964285Y-178014380D01*
X97964285Y-178966761D02*
X97869047Y-179014380D01*
X97678571Y-179014380D01*
X97583333Y-178966761D01*
X97535714Y-178919142D01*
X97488095Y-178823904D01*
X97488095Y-178538190D01*
X97535714Y-178442952D01*
X97583333Y-178395333D01*
X97678571Y-178347714D01*
X97869047Y-178347714D01*
X97964285Y-178395333D01*
X98821428Y-178966761D02*
X98726190Y-179014380D01*
X98535714Y-179014380D01*
X98440476Y-178966761D01*
X98392857Y-178871523D01*
X98392857Y-178490571D01*
X98440476Y-178395333D01*
X98535714Y-178347714D01*
X98726190Y-178347714D01*
X98821428Y-178395333D01*
X98869047Y-178490571D01*
X98869047Y-178585809D01*
X98392857Y-178681047D01*
%TO.C,SW23*%
X124277276Y-146952380D02*
X123801086Y-147285714D01*
X124277276Y-147523809D02*
X123277276Y-147523809D01*
X123277276Y-147142857D01*
X123324896Y-147047619D01*
X123372515Y-147000000D01*
X123467753Y-146952380D01*
X123610610Y-146952380D01*
X123705848Y-147000000D01*
X123753467Y-147047619D01*
X123801086Y-147142857D01*
X123801086Y-147523809D01*
X123753467Y-146523809D02*
X123753467Y-146190476D01*
X124277276Y-146047619D02*
X124277276Y-146523809D01*
X123277276Y-146523809D01*
X123277276Y-146047619D01*
X124229657Y-145666666D02*
X124277276Y-145523809D01*
X124277276Y-145285714D01*
X124229657Y-145190476D01*
X124182038Y-145142857D01*
X124086800Y-145095238D01*
X123991562Y-145095238D01*
X123896324Y-145142857D01*
X123848705Y-145190476D01*
X123801086Y-145285714D01*
X123753467Y-145476190D01*
X123705848Y-145571428D01*
X123658229Y-145619047D01*
X123562991Y-145666666D01*
X123467753Y-145666666D01*
X123372515Y-145619047D01*
X123324896Y-145571428D01*
X123277276Y-145476190D01*
X123277276Y-145238095D01*
X123324896Y-145095238D01*
X123753467Y-144666666D02*
X123753467Y-144333333D01*
X124277276Y-144190476D02*
X124277276Y-144666666D01*
X123277276Y-144666666D01*
X123277276Y-144190476D01*
X123277276Y-143904761D02*
X123277276Y-143333333D01*
X124277276Y-143619047D02*
X123277276Y-143619047D01*
%TO.C,U1*%
D11*
X112194571Y-103389285D02*
X112194571Y-102639285D01*
X112444571Y-103175000D01*
X112694571Y-102639285D01*
X112694571Y-103389285D01*
X113051714Y-103389285D02*
X113051714Y-102889285D01*
X113051714Y-102639285D02*
X113016000Y-102675000D01*
X113051714Y-102710714D01*
X113087428Y-102675000D01*
X113051714Y-102639285D01*
X113051714Y-102710714D01*
X113730285Y-103353571D02*
X113658857Y-103389285D01*
X113516000Y-103389285D01*
X113444571Y-103353571D01*
X113408857Y-103317857D01*
X113373142Y-103246428D01*
X113373142Y-103032142D01*
X113408857Y-102960714D01*
X113444571Y-102925000D01*
X113516000Y-102889285D01*
X113658857Y-102889285D01*
X113730285Y-102925000D01*
X114051714Y-103389285D02*
X114051714Y-102889285D01*
X114051714Y-103032142D02*
X114087428Y-102960714D01*
X114123142Y-102925000D01*
X114194571Y-102889285D01*
X114266000Y-102889285D01*
X114623142Y-103389285D02*
X114551714Y-103353571D01*
X114516000Y-103317857D01*
X114480285Y-103246428D01*
X114480285Y-103032142D01*
X114516000Y-102960714D01*
X114551714Y-102925000D01*
X114623142Y-102889285D01*
X114730285Y-102889285D01*
X114801714Y-102925000D01*
X114837428Y-102960714D01*
X114873142Y-103032142D01*
X114873142Y-103246428D01*
X114837428Y-103317857D01*
X114801714Y-103353571D01*
X114730285Y-103389285D01*
X114623142Y-103389285D01*
X115194571Y-102639285D02*
X115194571Y-103246428D01*
X115230285Y-103317857D01*
X115266000Y-103353571D01*
X115337428Y-103389285D01*
X115480285Y-103389285D01*
X115551714Y-103353571D01*
X115587428Y-103317857D01*
X115623142Y-103246428D01*
X115623142Y-102639285D01*
X115944571Y-103353571D02*
X116051714Y-103389285D01*
X116230285Y-103389285D01*
X116301714Y-103353571D01*
X116337428Y-103317857D01*
X116373142Y-103246428D01*
X116373142Y-103175000D01*
X116337428Y-103103571D01*
X116301714Y-103067857D01*
X116230285Y-103032142D01*
X116087428Y-102996428D01*
X116016000Y-102960714D01*
X115980285Y-102925000D01*
X115944571Y-102853571D01*
X115944571Y-102782142D01*
X115980285Y-102710714D01*
X116016000Y-102675000D01*
X116087428Y-102639285D01*
X116266000Y-102639285D01*
X116373142Y-102675000D01*
X116944571Y-102996428D02*
X117051714Y-103032142D01*
X117087428Y-103067857D01*
X117123142Y-103139285D01*
X117123142Y-103246428D01*
X117087428Y-103317857D01*
X117051714Y-103353571D01*
X116980285Y-103389285D01*
X116694571Y-103389285D01*
X116694571Y-102639285D01*
X116944571Y-102639285D01*
X117016000Y-102675000D01*
X117051714Y-102710714D01*
X117087428Y-102782142D01*
X117087428Y-102853571D01*
X117051714Y-102925000D01*
X117016000Y-102960714D01*
X116944571Y-102996428D01*
X116694571Y-102996428D01*
D10*
%TO.C,L17*%
X35004761Y-198064380D02*
X34528571Y-198064380D01*
X34528571Y-197064380D01*
X35338095Y-198064380D02*
X35338095Y-197397714D01*
X35338095Y-197064380D02*
X35290476Y-197112000D01*
X35338095Y-197159619D01*
X35385714Y-197112000D01*
X35338095Y-197064380D01*
X35338095Y-197159619D01*
X36242857Y-197397714D02*
X36242857Y-198207238D01*
X36195238Y-198302476D01*
X36147619Y-198350095D01*
X36052380Y-198397714D01*
X35909523Y-198397714D01*
X35814285Y-198350095D01*
X36242857Y-198016761D02*
X36147619Y-198064380D01*
X35957142Y-198064380D01*
X35861904Y-198016761D01*
X35814285Y-197969142D01*
X35766666Y-197873904D01*
X35766666Y-197588190D01*
X35814285Y-197492952D01*
X35861904Y-197445333D01*
X35957142Y-197397714D01*
X36147619Y-197397714D01*
X36242857Y-197445333D01*
X36719047Y-198064380D02*
X36719047Y-197064380D01*
X37147619Y-198064380D02*
X37147619Y-197540571D01*
X37100000Y-197445333D01*
X37004761Y-197397714D01*
X36861904Y-197397714D01*
X36766666Y-197445333D01*
X36719047Y-197492952D01*
X37480952Y-197397714D02*
X37861904Y-197397714D01*
X37623809Y-197064380D02*
X37623809Y-197921523D01*
X37671428Y-198016761D01*
X37766666Y-198064380D01*
X37861904Y-198064380D01*
X38909523Y-198016761D02*
X39052380Y-198064380D01*
X39290476Y-198064380D01*
X39385714Y-198016761D01*
X39433333Y-197969142D01*
X39480952Y-197873904D01*
X39480952Y-197778666D01*
X39433333Y-197683428D01*
X39385714Y-197635809D01*
X39290476Y-197588190D01*
X39100000Y-197540571D01*
X39004761Y-197492952D01*
X38957142Y-197445333D01*
X38909523Y-197350095D01*
X38909523Y-197254857D01*
X38957142Y-197159619D01*
X39004761Y-197112000D01*
X39100000Y-197064380D01*
X39338095Y-197064380D01*
X39480952Y-197112000D01*
X39909523Y-198064380D02*
X39909523Y-197397714D01*
X39909523Y-197064380D02*
X39861904Y-197112000D01*
X39909523Y-197159619D01*
X39957142Y-197112000D01*
X39909523Y-197064380D01*
X39909523Y-197159619D01*
X40814285Y-198064380D02*
X40814285Y-197064380D01*
X40814285Y-198016761D02*
X40719047Y-198064380D01*
X40528571Y-198064380D01*
X40433333Y-198016761D01*
X40385714Y-197969142D01*
X40338095Y-197873904D01*
X40338095Y-197588190D01*
X40385714Y-197492952D01*
X40433333Y-197445333D01*
X40528571Y-197397714D01*
X40719047Y-197397714D01*
X40814285Y-197445333D01*
X41671428Y-198016761D02*
X41576190Y-198064380D01*
X41385714Y-198064380D01*
X41290476Y-198016761D01*
X41242857Y-197921523D01*
X41242857Y-197540571D01*
X41290476Y-197445333D01*
X41385714Y-197397714D01*
X41576190Y-197397714D01*
X41671428Y-197445333D01*
X41719047Y-197540571D01*
X41719047Y-197635809D01*
X41242857Y-197731047D01*
%TO.C,L18*%
X54054761Y-198064380D02*
X53578571Y-198064380D01*
X53578571Y-197064380D01*
X54388095Y-198064380D02*
X54388095Y-197397714D01*
X54388095Y-197064380D02*
X54340476Y-197112000D01*
X54388095Y-197159619D01*
X54435714Y-197112000D01*
X54388095Y-197064380D01*
X54388095Y-197159619D01*
X55292857Y-197397714D02*
X55292857Y-198207238D01*
X55245238Y-198302476D01*
X55197619Y-198350095D01*
X55102380Y-198397714D01*
X54959523Y-198397714D01*
X54864285Y-198350095D01*
X55292857Y-198016761D02*
X55197619Y-198064380D01*
X55007142Y-198064380D01*
X54911904Y-198016761D01*
X54864285Y-197969142D01*
X54816666Y-197873904D01*
X54816666Y-197588190D01*
X54864285Y-197492952D01*
X54911904Y-197445333D01*
X55007142Y-197397714D01*
X55197619Y-197397714D01*
X55292857Y-197445333D01*
X55769047Y-198064380D02*
X55769047Y-197064380D01*
X56197619Y-198064380D02*
X56197619Y-197540571D01*
X56150000Y-197445333D01*
X56054761Y-197397714D01*
X55911904Y-197397714D01*
X55816666Y-197445333D01*
X55769047Y-197492952D01*
X56530952Y-197397714D02*
X56911904Y-197397714D01*
X56673809Y-197064380D02*
X56673809Y-197921523D01*
X56721428Y-198016761D01*
X56816666Y-198064380D01*
X56911904Y-198064380D01*
X57959523Y-198016761D02*
X58102380Y-198064380D01*
X58340476Y-198064380D01*
X58435714Y-198016761D01*
X58483333Y-197969142D01*
X58530952Y-197873904D01*
X58530952Y-197778666D01*
X58483333Y-197683428D01*
X58435714Y-197635809D01*
X58340476Y-197588190D01*
X58150000Y-197540571D01*
X58054761Y-197492952D01*
X58007142Y-197445333D01*
X57959523Y-197350095D01*
X57959523Y-197254857D01*
X58007142Y-197159619D01*
X58054761Y-197112000D01*
X58150000Y-197064380D01*
X58388095Y-197064380D01*
X58530952Y-197112000D01*
X58959523Y-198064380D02*
X58959523Y-197397714D01*
X58959523Y-197064380D02*
X58911904Y-197112000D01*
X58959523Y-197159619D01*
X59007142Y-197112000D01*
X58959523Y-197064380D01*
X58959523Y-197159619D01*
X59864285Y-198064380D02*
X59864285Y-197064380D01*
X59864285Y-198016761D02*
X59769047Y-198064380D01*
X59578571Y-198064380D01*
X59483333Y-198016761D01*
X59435714Y-197969142D01*
X59388095Y-197873904D01*
X59388095Y-197588190D01*
X59435714Y-197492952D01*
X59483333Y-197445333D01*
X59578571Y-197397714D01*
X59769047Y-197397714D01*
X59864285Y-197445333D01*
X60721428Y-198016761D02*
X60626190Y-198064380D01*
X60435714Y-198064380D01*
X60340476Y-198016761D01*
X60292857Y-197921523D01*
X60292857Y-197540571D01*
X60340476Y-197445333D01*
X60435714Y-197397714D01*
X60626190Y-197397714D01*
X60721428Y-197445333D01*
X60769047Y-197540571D01*
X60769047Y-197635809D01*
X60292857Y-197731047D01*
%TO.C,L19*%
X73104761Y-198064380D02*
X72628571Y-198064380D01*
X72628571Y-197064380D01*
X73438095Y-198064380D02*
X73438095Y-197397714D01*
X73438095Y-197064380D02*
X73390476Y-197112000D01*
X73438095Y-197159619D01*
X73485714Y-197112000D01*
X73438095Y-197064380D01*
X73438095Y-197159619D01*
X74342857Y-197397714D02*
X74342857Y-198207238D01*
X74295238Y-198302476D01*
X74247619Y-198350095D01*
X74152380Y-198397714D01*
X74009523Y-198397714D01*
X73914285Y-198350095D01*
X74342857Y-198016761D02*
X74247619Y-198064380D01*
X74057142Y-198064380D01*
X73961904Y-198016761D01*
X73914285Y-197969142D01*
X73866666Y-197873904D01*
X73866666Y-197588190D01*
X73914285Y-197492952D01*
X73961904Y-197445333D01*
X74057142Y-197397714D01*
X74247619Y-197397714D01*
X74342857Y-197445333D01*
X74819047Y-198064380D02*
X74819047Y-197064380D01*
X75247619Y-198064380D02*
X75247619Y-197540571D01*
X75200000Y-197445333D01*
X75104761Y-197397714D01*
X74961904Y-197397714D01*
X74866666Y-197445333D01*
X74819047Y-197492952D01*
X75580952Y-197397714D02*
X75961904Y-197397714D01*
X75723809Y-197064380D02*
X75723809Y-197921523D01*
X75771428Y-198016761D01*
X75866666Y-198064380D01*
X75961904Y-198064380D01*
X77009523Y-198016761D02*
X77152380Y-198064380D01*
X77390476Y-198064380D01*
X77485714Y-198016761D01*
X77533333Y-197969142D01*
X77580952Y-197873904D01*
X77580952Y-197778666D01*
X77533333Y-197683428D01*
X77485714Y-197635809D01*
X77390476Y-197588190D01*
X77200000Y-197540571D01*
X77104761Y-197492952D01*
X77057142Y-197445333D01*
X77009523Y-197350095D01*
X77009523Y-197254857D01*
X77057142Y-197159619D01*
X77104761Y-197112000D01*
X77200000Y-197064380D01*
X77438095Y-197064380D01*
X77580952Y-197112000D01*
X78009523Y-198064380D02*
X78009523Y-197397714D01*
X78009523Y-197064380D02*
X77961904Y-197112000D01*
X78009523Y-197159619D01*
X78057142Y-197112000D01*
X78009523Y-197064380D01*
X78009523Y-197159619D01*
X78914285Y-198064380D02*
X78914285Y-197064380D01*
X78914285Y-198016761D02*
X78819047Y-198064380D01*
X78628571Y-198064380D01*
X78533333Y-198016761D01*
X78485714Y-197969142D01*
X78438095Y-197873904D01*
X78438095Y-197588190D01*
X78485714Y-197492952D01*
X78533333Y-197445333D01*
X78628571Y-197397714D01*
X78819047Y-197397714D01*
X78914285Y-197445333D01*
X79771428Y-198016761D02*
X79676190Y-198064380D01*
X79485714Y-198064380D01*
X79390476Y-198016761D01*
X79342857Y-197921523D01*
X79342857Y-197540571D01*
X79390476Y-197445333D01*
X79485714Y-197397714D01*
X79676190Y-197397714D01*
X79771428Y-197445333D01*
X79819047Y-197540571D01*
X79819047Y-197635809D01*
X79342857Y-197731047D01*
%TO.C,L20*%
X92154761Y-198064380D02*
X91678571Y-198064380D01*
X91678571Y-197064380D01*
X92488095Y-198064380D02*
X92488095Y-197397714D01*
X92488095Y-197064380D02*
X92440476Y-197112000D01*
X92488095Y-197159619D01*
X92535714Y-197112000D01*
X92488095Y-197064380D01*
X92488095Y-197159619D01*
X93392857Y-197397714D02*
X93392857Y-198207238D01*
X93345238Y-198302476D01*
X93297619Y-198350095D01*
X93202380Y-198397714D01*
X93059523Y-198397714D01*
X92964285Y-198350095D01*
X93392857Y-198016761D02*
X93297619Y-198064380D01*
X93107142Y-198064380D01*
X93011904Y-198016761D01*
X92964285Y-197969142D01*
X92916666Y-197873904D01*
X92916666Y-197588190D01*
X92964285Y-197492952D01*
X93011904Y-197445333D01*
X93107142Y-197397714D01*
X93297619Y-197397714D01*
X93392857Y-197445333D01*
X93869047Y-198064380D02*
X93869047Y-197064380D01*
X94297619Y-198064380D02*
X94297619Y-197540571D01*
X94250000Y-197445333D01*
X94154761Y-197397714D01*
X94011904Y-197397714D01*
X93916666Y-197445333D01*
X93869047Y-197492952D01*
X94630952Y-197397714D02*
X95011904Y-197397714D01*
X94773809Y-197064380D02*
X94773809Y-197921523D01*
X94821428Y-198016761D01*
X94916666Y-198064380D01*
X95011904Y-198064380D01*
X96059523Y-198016761D02*
X96202380Y-198064380D01*
X96440476Y-198064380D01*
X96535714Y-198016761D01*
X96583333Y-197969142D01*
X96630952Y-197873904D01*
X96630952Y-197778666D01*
X96583333Y-197683428D01*
X96535714Y-197635809D01*
X96440476Y-197588190D01*
X96250000Y-197540571D01*
X96154761Y-197492952D01*
X96107142Y-197445333D01*
X96059523Y-197350095D01*
X96059523Y-197254857D01*
X96107142Y-197159619D01*
X96154761Y-197112000D01*
X96250000Y-197064380D01*
X96488095Y-197064380D01*
X96630952Y-197112000D01*
X97059523Y-198064380D02*
X97059523Y-197397714D01*
X97059523Y-197064380D02*
X97011904Y-197112000D01*
X97059523Y-197159619D01*
X97107142Y-197112000D01*
X97059523Y-197064380D01*
X97059523Y-197159619D01*
X97964285Y-198064380D02*
X97964285Y-197064380D01*
X97964285Y-198016761D02*
X97869047Y-198064380D01*
X97678571Y-198064380D01*
X97583333Y-198016761D01*
X97535714Y-197969142D01*
X97488095Y-197873904D01*
X97488095Y-197588190D01*
X97535714Y-197492952D01*
X97583333Y-197445333D01*
X97678571Y-197397714D01*
X97869047Y-197397714D01*
X97964285Y-197445333D01*
X98821428Y-198016761D02*
X98726190Y-198064380D01*
X98535714Y-198064380D01*
X98440476Y-198016761D01*
X98392857Y-197921523D01*
X98392857Y-197540571D01*
X98440476Y-197445333D01*
X98535714Y-197397714D01*
X98726190Y-197397714D01*
X98821428Y-197445333D01*
X98869047Y-197540571D01*
X98869047Y-197635809D01*
X98392857Y-197731047D01*
%TD*%
M02*
