%TF.GenerationSoftware,KiCad,Pcbnew,(5.1.10-1-10_14)*%
%TF.CreationDate,2021-11-10T22:24:01+09:00*%
%TF.ProjectId,macropad,6d616372-6f70-4616-942e-6b696361645f,rev?*%
%TF.SameCoordinates,Original*%
%TF.FileFunction,Soldermask,Bot*%
%TF.FilePolarity,Negative*%
%FSLAX46Y46*%
G04 Gerber Fmt 4.6, Leading zero omitted, Abs format (unit mm)*
G04 Created by KiCad (PCBNEW (5.1.10-1-10_14)) date 2021-11-10 22:24:01*
%MOMM*%
%LPD*%
G01*
G04 APERTURE LIST*
%ADD10C,2.200000*%
%ADD11R,0.950000X1.300000*%
%ADD12R,1.300000X0.950000*%
%ADD13R,2.500000X0.820000*%
%ADD14R,3.300000X3.000000*%
%ADD15C,4.000000*%
%ADD16C,3.000000*%
%ADD17C,2.000000*%
%ADD18R,3.200000X2.500000*%
%ADD19C,1.524000*%
G04 APERTURE END LIST*
D10*
%TO.C,Ref\u002A\u002A*%
X122634272Y-198536552D03*
%TD*%
%TO.C,Ref\u002A\u002A*%
X113109280Y-146744408D03*
%TD*%
%TO.C,Ref\u002A\u002A*%
X30063256Y-105965536D03*
%TD*%
%TO.C,Ref\u002A\u002A*%
X30063256Y-198536552D03*
%TD*%
D11*
%TO.C,D1*%
X46434400Y-117287000D03*
X46434400Y-120837000D03*
%TD*%
%TO.C,D2*%
X65484400Y-120837000D03*
X65484400Y-117287000D03*
%TD*%
%TO.C,D3*%
X84534700Y-117288000D03*
X84534700Y-120838000D03*
%TD*%
%TO.C,D4*%
X103584000Y-120837000D03*
X103584000Y-117287000D03*
%TD*%
%TO.C,D5*%
X46434600Y-136338000D03*
X46434600Y-139888000D03*
%TD*%
%TO.C,D6*%
X65484700Y-139888000D03*
X65484700Y-136338000D03*
%TD*%
%TO.C,D7*%
X84534400Y-136337000D03*
X84534400Y-139887000D03*
%TD*%
%TO.C,D8*%
X103585000Y-139888000D03*
X103585000Y-136338000D03*
%TD*%
%TO.C,D9*%
X46434400Y-155387000D03*
X46434400Y-158937000D03*
%TD*%
%TO.C,D10*%
X65484700Y-158938000D03*
X65484700Y-155388000D03*
%TD*%
%TO.C,D11*%
X84534700Y-155388000D03*
X84534700Y-158938000D03*
%TD*%
%TO.C,D12*%
X103585000Y-155388000D03*
X103585000Y-158938000D03*
%TD*%
%TO.C,D13*%
X46434600Y-174438000D03*
X46434600Y-177988000D03*
%TD*%
%TO.C,D14*%
X65484700Y-177988000D03*
X65484700Y-174438000D03*
%TD*%
%TO.C,D15*%
X84534700Y-174438000D03*
X84534700Y-177988000D03*
%TD*%
%TO.C,D16*%
X103585000Y-177988000D03*
X103585000Y-174438000D03*
%TD*%
%TO.C,D17*%
X46434600Y-193488000D03*
X46434600Y-197038000D03*
%TD*%
%TO.C,D18*%
X65484700Y-197038000D03*
X65484700Y-193488000D03*
%TD*%
%TO.C,D19*%
X84534700Y-193488000D03*
X84534700Y-197038000D03*
%TD*%
%TO.C,D20*%
X103585000Y-193488000D03*
X103585000Y-197038000D03*
%TD*%
D12*
%TO.C,D21*%
X110122000Y-169069000D03*
X106572000Y-169069000D03*
%TD*%
%TO.C,D22*%
X106572000Y-192882000D03*
X110122000Y-192882000D03*
%TD*%
D13*
%TO.C,L1*%
X35250000Y-119812000D03*
X35250000Y-118312000D03*
X40950000Y-118312000D03*
X40950000Y-119812000D03*
%TD*%
%TO.C,L2*%
X60000000Y-119812000D03*
X60000000Y-118312000D03*
X54300000Y-118312000D03*
X54300000Y-119812000D03*
%TD*%
%TO.C,L3*%
X73350000Y-119812000D03*
X73350000Y-118312000D03*
X79050000Y-118312000D03*
X79050000Y-119812000D03*
%TD*%
%TO.C,L4*%
X98100000Y-119812000D03*
X98100000Y-118312000D03*
X92400000Y-118312000D03*
X92400000Y-119812000D03*
%TD*%
%TO.C,L5*%
X40950000Y-138862000D03*
X40950000Y-137362000D03*
X35250000Y-137362000D03*
X35250000Y-138862000D03*
%TD*%
%TO.C,L6*%
X54300000Y-138862000D03*
X54300000Y-137362000D03*
X60000000Y-137362000D03*
X60000000Y-138862000D03*
%TD*%
%TO.C,L7*%
X79050000Y-138862000D03*
X79050000Y-137362000D03*
X73350000Y-137362000D03*
X73350000Y-138862000D03*
%TD*%
%TO.C,L8*%
X92400000Y-138862000D03*
X92400000Y-137362000D03*
X98100000Y-137362000D03*
X98100000Y-138862000D03*
%TD*%
%TO.C,L9*%
X35250000Y-157912000D03*
X35250000Y-156412000D03*
X40950000Y-156412000D03*
X40950000Y-157912000D03*
%TD*%
%TO.C,L10*%
X60000000Y-157912000D03*
X60000000Y-156412000D03*
X54300000Y-156412000D03*
X54300000Y-157912000D03*
%TD*%
%TO.C,L11*%
X73350000Y-157912000D03*
X73350000Y-156412000D03*
X79050000Y-156412000D03*
X79050000Y-157912000D03*
%TD*%
%TO.C,L12*%
X98100000Y-157912000D03*
X98100000Y-156412000D03*
X92400000Y-156412000D03*
X92400000Y-157912000D03*
%TD*%
%TO.C,L13*%
X40950000Y-176962000D03*
X40950000Y-175462000D03*
X35250000Y-175462000D03*
X35250000Y-176962000D03*
%TD*%
%TO.C,L14*%
X54300000Y-176962000D03*
X54300000Y-175462000D03*
X60000000Y-175462000D03*
X60000000Y-176962000D03*
%TD*%
%TO.C,L15*%
X79050000Y-176962000D03*
X79050000Y-175462000D03*
X73350000Y-175462000D03*
X73350000Y-176962000D03*
%TD*%
%TO.C,L16*%
X92400000Y-176962000D03*
X92400000Y-175462000D03*
X98100000Y-175462000D03*
X98100000Y-176962000D03*
%TD*%
D14*
%TO.C,SW1*%
X44250000Y-109180000D03*
D10*
X33020000Y-114300000D03*
X43180000Y-114300000D03*
D15*
X38100000Y-114300000D03*
D16*
X40640000Y-109220000D03*
X34290000Y-111760000D03*
D14*
X30650000Y-111720000D03*
%TD*%
%TO.C,SW2*%
X49700000Y-111720000D03*
D16*
X53340000Y-111760000D03*
X59690000Y-109220000D03*
D15*
X57150000Y-114300000D03*
D10*
X62230000Y-114300000D03*
X52070000Y-114300000D03*
D14*
X63300000Y-109180000D03*
%TD*%
%TO.C,SW3*%
X82350000Y-109180000D03*
D10*
X71120000Y-114300000D03*
X81280000Y-114300000D03*
D15*
X76200000Y-114300000D03*
D16*
X78740000Y-109220000D03*
X72390000Y-111760000D03*
D14*
X68750000Y-111720000D03*
%TD*%
%TO.C,SW4*%
X87800000Y-111720000D03*
D16*
X91440000Y-111760000D03*
X97790000Y-109220000D03*
D15*
X95250000Y-114300000D03*
D10*
X100330000Y-114300000D03*
X90170000Y-114300000D03*
D14*
X101400000Y-109180000D03*
%TD*%
%TO.C,SW5*%
X44250000Y-128230000D03*
D10*
X33020000Y-133350000D03*
X43180000Y-133350000D03*
D15*
X38100000Y-133350000D03*
D16*
X40640000Y-128270000D03*
X34290000Y-130810000D03*
D14*
X30650000Y-130770000D03*
%TD*%
%TO.C,SW6*%
X49700000Y-130770000D03*
D16*
X53340000Y-130810000D03*
X59690000Y-128270000D03*
D15*
X57150000Y-133350000D03*
D10*
X62230000Y-133350000D03*
X52070000Y-133350000D03*
D14*
X63300000Y-128230000D03*
%TD*%
%TO.C,SW7*%
X82350000Y-128230000D03*
D10*
X71120000Y-133350000D03*
X81280000Y-133350000D03*
D15*
X76200000Y-133350000D03*
D16*
X78740000Y-128270000D03*
X72390000Y-130810000D03*
D14*
X68750000Y-130770000D03*
%TD*%
%TO.C,SW8*%
X87800000Y-130770000D03*
D16*
X91440000Y-130810000D03*
X97790000Y-128270000D03*
D15*
X95250000Y-133350000D03*
D10*
X100330000Y-133350000D03*
X90170000Y-133350000D03*
D14*
X101400000Y-128230000D03*
%TD*%
%TO.C,SW9*%
X44250000Y-147280000D03*
D10*
X33020000Y-152400000D03*
X43180000Y-152400000D03*
D15*
X38100000Y-152400000D03*
D16*
X40640000Y-147320000D03*
X34290000Y-149860000D03*
D14*
X30650000Y-149820000D03*
%TD*%
%TO.C,SW10*%
X49700000Y-149820000D03*
D16*
X53340000Y-149860000D03*
X59690000Y-147320000D03*
D15*
X57150000Y-152400000D03*
D10*
X62230000Y-152400000D03*
X52070000Y-152400000D03*
D14*
X63300000Y-147280000D03*
%TD*%
%TO.C,SW11*%
X82350000Y-147280000D03*
D10*
X71120000Y-152400000D03*
X81280000Y-152400000D03*
D15*
X76200000Y-152400000D03*
D16*
X78740000Y-147320000D03*
X72390000Y-149860000D03*
D14*
X68750000Y-149820000D03*
%TD*%
%TO.C,SW12*%
X87800000Y-149820000D03*
D16*
X91440000Y-149860000D03*
X97790000Y-147320000D03*
D15*
X95250000Y-152400000D03*
D10*
X100330000Y-152400000D03*
X90170000Y-152400000D03*
D14*
X101400000Y-147280000D03*
%TD*%
%TO.C,SW13*%
X44250000Y-166330000D03*
D10*
X33020000Y-171450000D03*
X43180000Y-171450000D03*
D15*
X38100000Y-171450000D03*
D16*
X40640000Y-166370000D03*
X34290000Y-168910000D03*
D14*
X30650000Y-168870000D03*
%TD*%
%TO.C,SW14*%
X49700000Y-168870000D03*
D16*
X53340000Y-168910000D03*
X59690000Y-166370000D03*
D15*
X57150000Y-171450000D03*
D10*
X62230000Y-171450000D03*
X52070000Y-171450000D03*
D14*
X63300000Y-166330000D03*
%TD*%
%TO.C,SW15*%
X82350000Y-166330000D03*
D10*
X71120000Y-171450000D03*
X81280000Y-171450000D03*
D15*
X76200000Y-171450000D03*
D16*
X78740000Y-166370000D03*
X72390000Y-168910000D03*
D14*
X68750000Y-168870000D03*
%TD*%
%TO.C,SW16*%
X87800000Y-168870000D03*
D16*
X91440000Y-168910000D03*
X97790000Y-166370000D03*
D15*
X95250000Y-171450000D03*
D10*
X100330000Y-171450000D03*
X90170000Y-171450000D03*
D14*
X101400000Y-166330000D03*
%TD*%
%TO.C,SW17*%
X44250000Y-185380000D03*
D10*
X33020000Y-190500000D03*
X43180000Y-190500000D03*
D15*
X38100000Y-190500000D03*
D16*
X40640000Y-185420000D03*
X34290000Y-187960000D03*
D14*
X30650000Y-187920000D03*
%TD*%
%TO.C,SW18*%
X49700000Y-187920000D03*
D16*
X53340000Y-187960000D03*
X59690000Y-185420000D03*
D15*
X57150000Y-190500000D03*
D10*
X62230000Y-190500000D03*
X52070000Y-190500000D03*
D14*
X63300000Y-185380000D03*
%TD*%
%TO.C,SW19*%
X68750000Y-187920000D03*
D16*
X72390000Y-187960000D03*
X78740000Y-185420000D03*
D15*
X76200000Y-190500000D03*
D10*
X81280000Y-190500000D03*
X71120000Y-190500000D03*
D14*
X82350000Y-185380000D03*
%TD*%
%TO.C,SW20*%
X101400000Y-185380000D03*
D10*
X90170000Y-190500000D03*
X100330000Y-190500000D03*
D15*
X95250000Y-190500000D03*
D16*
X97790000Y-185420000D03*
X91440000Y-187960000D03*
D14*
X87800000Y-187920000D03*
%TD*%
D17*
%TO.C,SW21*%
X122591000Y-164426000D03*
X122591000Y-161926000D03*
X122591000Y-159426000D03*
D18*
X115091000Y-167526000D03*
X115091000Y-156326000D03*
D17*
X108091000Y-164426000D03*
X108091000Y-159426000D03*
%TD*%
%TO.C,SW22*%
X108091000Y-183238000D03*
X108091000Y-188238000D03*
D18*
X115091000Y-180138000D03*
X115091000Y-191338000D03*
D17*
X122591000Y-183238000D03*
X122591000Y-185738000D03*
X122591000Y-188238000D03*
%TD*%
%TO.C,SW23*%
X123824896Y-142250000D03*
X123824896Y-148750000D03*
%TD*%
D19*
%TO.C,U1*%
X122302400Y-107522000D03*
X122302400Y-110062000D03*
X122302400Y-112602000D03*
X122302400Y-115142000D03*
X122302400Y-117682000D03*
X122302400Y-120222000D03*
X122302400Y-122762000D03*
X122302400Y-125302000D03*
X122302400Y-127842000D03*
X122302400Y-130382000D03*
X122302400Y-132922000D03*
X122302400Y-135462000D03*
X107082400Y-135462000D03*
X107082400Y-132922000D03*
X107082400Y-130382000D03*
X107082400Y-127842000D03*
X107082400Y-125302000D03*
X107082400Y-122762000D03*
X107082400Y-120222000D03*
X107082400Y-117682000D03*
X107082400Y-115142000D03*
X107082400Y-112602000D03*
X107082400Y-110062000D03*
X107082400Y-107522000D03*
%TD*%
D13*
%TO.C,L17*%
X40950000Y-196012000D03*
X40950000Y-194512000D03*
X35250000Y-194512000D03*
X35250000Y-196012000D03*
%TD*%
%TO.C,L18*%
X54300000Y-196012000D03*
X54300000Y-194512000D03*
X60000000Y-194512000D03*
X60000000Y-196012000D03*
%TD*%
%TO.C,L19*%
X79050000Y-196012000D03*
X79050000Y-194512000D03*
X73350000Y-194512000D03*
X73350000Y-196012000D03*
%TD*%
%TO.C,L20*%
X92400000Y-196012000D03*
X92400000Y-194512000D03*
X98100000Y-194512000D03*
X98100000Y-196012000D03*
%TD*%
M02*
