%TF.GenerationSoftware,KiCad,Pcbnew,(5.1.10-1-10_14)*%
%TF.CreationDate,2021-11-10T22:24:01+09:00*%
%TF.ProjectId,macropad,6d616372-6f70-4616-942e-6b696361645f,rev?*%
%TF.SameCoordinates,Original*%
%TF.FileFunction,Profile,NP*%
%FSLAX46Y46*%
G04 Gerber Fmt 4.6, Leading zero omitted, Abs format (unit mm)*
G04 Created by KiCad (PCBNEW (5.1.10-1-10_14)) date 2021-11-10 22:24:01*
%MOMM*%
%LPD*%
G01*
G04 APERTURE LIST*
%TA.AperFunction,Profile*%
%ADD10C,0.050000*%
%TD*%
%TA.AperFunction,Profile*%
%ADD11C,0.120000*%
%TD*%
G04 APERTURE END LIST*
D10*
X26491384Y-200917800D02*
X26491378Y-103584810D01*
X126206144Y-200917800D02*
G75*
G02*
X125015520Y-202108424I-1190624J0D01*
G01*
X27682014Y-202108430D02*
X125015520Y-202108424D01*
X126206144Y-200917800D02*
X126206150Y-103584810D01*
X125015520Y-102394180D02*
G75*
G02*
X126206150Y-103584810I0J-1190630D01*
G01*
X27682014Y-202108430D02*
G75*
G02*
X26491384Y-200917800I0J1190630D01*
G01*
X26491378Y-103584810D02*
G75*
G02*
X27682008Y-102394180I1190630J0D01*
G01*
X27682008Y-102394180D02*
X125015520Y-102394180D01*
D11*
%TO.C,L1*%
X39850000Y-120662000D02*
X36350000Y-120662000D01*
X39850000Y-117462000D02*
X39850000Y-120662000D01*
X36350000Y-117462000D02*
X39850000Y-117462000D01*
X36350000Y-120662000D02*
X36350000Y-117462000D01*
%TO.C,L2*%
X55400000Y-120662000D02*
X55400000Y-117462000D01*
X55400000Y-117462000D02*
X58900000Y-117462000D01*
X58900000Y-117462000D02*
X58900000Y-120662000D01*
X58900000Y-120662000D02*
X55400000Y-120662000D01*
%TO.C,L3*%
X77950000Y-120662000D02*
X74450000Y-120662000D01*
X77950000Y-117462000D02*
X77950000Y-120662000D01*
X74450000Y-117462000D02*
X77950000Y-117462000D01*
X74450000Y-120662000D02*
X74450000Y-117462000D01*
%TO.C,L4*%
X93500000Y-120662000D02*
X93500000Y-117462000D01*
X93500000Y-117462000D02*
X97000000Y-117462000D01*
X97000000Y-117462000D02*
X97000000Y-120662000D01*
X97000000Y-120662000D02*
X93500000Y-120662000D01*
%TO.C,L5*%
X36350000Y-139712000D02*
X36350000Y-136512000D01*
X36350000Y-136512000D02*
X39850000Y-136512000D01*
X39850000Y-136512000D02*
X39850000Y-139712000D01*
X39850000Y-139712000D02*
X36350000Y-139712000D01*
%TO.C,L6*%
X58900000Y-139712000D02*
X55400000Y-139712000D01*
X58900000Y-136512000D02*
X58900000Y-139712000D01*
X55400000Y-136512000D02*
X58900000Y-136512000D01*
X55400000Y-139712000D02*
X55400000Y-136512000D01*
%TO.C,L7*%
X74450000Y-139712000D02*
X74450000Y-136512000D01*
X74450000Y-136512000D02*
X77950000Y-136512000D01*
X77950000Y-136512000D02*
X77950000Y-139712000D01*
X77950000Y-139712000D02*
X74450000Y-139712000D01*
%TO.C,L8*%
X97000000Y-139712000D02*
X93500000Y-139712000D01*
X97000000Y-136512000D02*
X97000000Y-139712000D01*
X93500000Y-136512000D02*
X97000000Y-136512000D01*
X93500000Y-139712000D02*
X93500000Y-136512000D01*
%TO.C,L9*%
X39850000Y-158762000D02*
X36350000Y-158762000D01*
X39850000Y-155562000D02*
X39850000Y-158762000D01*
X36350000Y-155562000D02*
X39850000Y-155562000D01*
X36350000Y-158762000D02*
X36350000Y-155562000D01*
%TO.C,L10*%
X55400000Y-158762000D02*
X55400000Y-155562000D01*
X55400000Y-155562000D02*
X58900000Y-155562000D01*
X58900000Y-155562000D02*
X58900000Y-158762000D01*
X58900000Y-158762000D02*
X55400000Y-158762000D01*
%TO.C,L11*%
X77950000Y-158762000D02*
X74450000Y-158762000D01*
X77950000Y-155562000D02*
X77950000Y-158762000D01*
X74450000Y-155562000D02*
X77950000Y-155562000D01*
X74450000Y-158762000D02*
X74450000Y-155562000D01*
%TO.C,L12*%
X93500000Y-158762000D02*
X93500000Y-155562000D01*
X93500000Y-155562000D02*
X97000000Y-155562000D01*
X97000000Y-155562000D02*
X97000000Y-158762000D01*
X97000000Y-158762000D02*
X93500000Y-158762000D01*
%TO.C,L13*%
X36350000Y-177812000D02*
X36350000Y-174612000D01*
X36350000Y-174612000D02*
X39850000Y-174612000D01*
X39850000Y-174612000D02*
X39850000Y-177812000D01*
X39850000Y-177812000D02*
X36350000Y-177812000D01*
%TO.C,L14*%
X58900000Y-177812000D02*
X55400000Y-177812000D01*
X58900000Y-174612000D02*
X58900000Y-177812000D01*
X55400000Y-174612000D02*
X58900000Y-174612000D01*
X55400000Y-177812000D02*
X55400000Y-174612000D01*
%TO.C,L15*%
X74450000Y-177812000D02*
X74450000Y-174612000D01*
X74450000Y-174612000D02*
X77950000Y-174612000D01*
X77950000Y-174612000D02*
X77950000Y-177812000D01*
X77950000Y-177812000D02*
X74450000Y-177812000D01*
%TO.C,L16*%
X97000000Y-177812000D02*
X93500000Y-177812000D01*
X97000000Y-174612000D02*
X97000000Y-177812000D01*
X93500000Y-174612000D02*
X97000000Y-174612000D01*
X93500000Y-177812000D02*
X93500000Y-174612000D01*
%TO.C,L17*%
X39850000Y-196862000D02*
X36350000Y-196862000D01*
X39850000Y-193662000D02*
X39850000Y-196862000D01*
X36350000Y-193662000D02*
X39850000Y-193662000D01*
X36350000Y-196862000D02*
X36350000Y-193662000D01*
%TO.C,L18*%
X55400000Y-196862000D02*
X55400000Y-193662000D01*
X55400000Y-193662000D02*
X58900000Y-193662000D01*
X58900000Y-193662000D02*
X58900000Y-196862000D01*
X58900000Y-196862000D02*
X55400000Y-196862000D01*
%TO.C,L19*%
X77950000Y-196862000D02*
X74450000Y-196862000D01*
X77950000Y-193662000D02*
X77950000Y-196862000D01*
X74450000Y-193662000D02*
X77950000Y-193662000D01*
X74450000Y-196862000D02*
X74450000Y-193662000D01*
%TO.C,L20*%
X93500000Y-196862000D02*
X93500000Y-193662000D01*
X93500000Y-193662000D02*
X97000000Y-193662000D01*
X97000000Y-193662000D02*
X97000000Y-196862000D01*
X97000000Y-196862000D02*
X93500000Y-196862000D01*
%TD*%
M02*
