M48
; DRILL file {KiCad (5.1.10-1-10_14)} date Wednesday, November 10, 2021 at 10:24:30 PM
; FORMAT={-:-/ absolute / metric / decimal}
; #@! TF.CreationDate,2021-11-10T22:24:30+09:00
; #@! TF.GenerationSoftware,Kicad,Pcbnew,(5.1.10-1-10_14)
; #@! TF.FileFunction,Plated,1,2,PTH
FMAT,2
METRIC
T1C0.400
T2C0.813
T3C1.000
T4C1.300
T5C2.000
%
G90
G05
T1
X29.468Y-144.066
X30.747Y-120.608
X30.957Y-174.585
X31.1Y-155.534
X31.1Y-176.32
X31.284Y-122.511
X31.944Y-157.541
X33.343Y-176.316
X33.383Y-139.224
X39.364Y-162.295
X41.374Y-104.775
X42.505Y-120.813
X42.565Y-200.322
X42.842Y-156.958
X42.976Y-118.656
X42.989Y-176.082
X48.202Y-117.486
X48.202Y-155.786
X49.47Y-135.28
X50.15Y-151.957
X50.15Y-173.881
X51.421Y-157.629
X51.445Y-181.308
X52.09Y-196.523
X52.433Y-119.812
X52.44Y-176.972
X53.81Y-160.576
X60.75Y-198.685
X61.858Y-176.082
X61.877Y-118.758
X62.125Y-156.921
X62.33Y-194.92
X64.265Y-197.457
X67.066Y-159.764
X68.37Y-135.28
X68.77Y-160.334
X69.2Y-117.877
X69.2Y-122.497
X69.2Y-155.562
X69.2Y-164.502
X69.2Y-181.308
X70.5Y-195.61
X70.621Y-157.869
X70.78Y-119.7
X71.456Y-176.892
X80.938Y-118.765
X81.29Y-194.8
X81.535Y-176.02
X81.58Y-156.89
X83.217Y-197.457
X84.534Y-144.066
X85.628Y-139.649
X85.643Y-178.836
X85.838Y-121.832
X86.3Y-161.625
X86.753Y-118.176
X86.952Y-158.699
X87.067Y-156.286
X87.127Y-178.111
X87.688Y-122.622
X87.99Y-133.73
X88.25Y-125.302
X88.345Y-174.597
X89.7Y-119.57
X90.48Y-157.843
X90.513Y-176.329
X90.526Y-196.022
X91.47Y-192.71
X97.75Y-136.332
X99.539Y-159.269
X99.675Y-174.513
X100.4Y-117.97
X101.618Y-154.408
X102.298Y-176.435
X102.39Y-137.218
X102.394Y-104.775
X102.405Y-159.425
X102.467Y-189.888
X102.475Y-120.712
X102.508Y-173.932
X102.561Y-171.397
X102.691Y-200.025
X102.73Y-133.433
X103.924Y-191.343
X104.145Y-135.058
X104.597Y-154.408
X105.65Y-176.83
X109.24Y-173.533
X111.53Y-166.91
X118.467Y-136.624
X120.348Y-138.909
X124.123Y-160.734
T2
X107.082Y-107.522
X107.082Y-110.062
X107.082Y-112.602
X107.082Y-115.142
X107.082Y-117.682
X107.082Y-120.222
X107.082Y-122.762
X107.082Y-125.302
X107.082Y-127.842
X107.082Y-130.382
X107.082Y-132.922
X107.082Y-135.462
X122.302Y-107.522
X122.302Y-110.062
X122.302Y-112.602
X122.302Y-115.142
X122.302Y-117.682
X122.302Y-120.222
X122.302Y-122.762
X122.302Y-125.302
X122.302Y-127.842
X122.302Y-130.382
X122.302Y-132.922
X122.302Y-135.462
T3
X108.091Y-159.426
X108.091Y-164.426
X108.091Y-183.238
X108.091Y-188.238
X122.591Y-159.426
X122.591Y-161.926
X122.591Y-164.426
X122.591Y-183.238
X122.591Y-185.738
X122.591Y-188.238
T4
X123.825Y-142.25
X123.825Y-148.75
T5
G00X115.491Y-156.326
M15
G01X114.691Y-156.326
M16
G05
G00X115.491Y-167.526
M15
G01X114.691Y-167.526
M16
G05
G00X115.491Y-180.138
M15
G01X114.691Y-180.138
M16
G05
G00X115.491Y-191.338
M15
G01X114.691Y-191.338
M16
G05
T0
M30
